<svg width="144" height="144" viewBox="0 0 144 144" fill="none" xmlns="http://www.w3.org/2000/svg">
<path d="M42.6437 95.1339L33.5713 88.3174L9.94853 70.5674L0.404297 56.0941H54.4964L57.8483 45.0497L72.0246 2.5979L89.5602 56.0941H143.647L134.102 70.5674L101.407 95.1339L115.751 142.379L99.4879 137.841L72.0264 117.208L44.5649 137.841L28.3019 142.379L42.6437 95.1339Z" fill="#252830"/>
<path d="M72.0226 3.19561L89.3383 56.0226L89.4229 56.282H89.6955H143.297L133.963 70.4376L101.4 94.9044L101.189 95.0623L101.266 95.3143L115.473 142.107L99.5743 137.67L72.2519 117.144L72.0263 116.974L71.8007 117.144L44.4802 137.67L28.5819 142.107L42.7864 95.3143L42.8616 95.0623L42.6511 94.9044L34.0825 88.4658L33.3136 87.8887L10.0875 70.4376L0.753838 56.282H54.3553H54.6335L54.7144 56.015L58.023 45.1079L72.0226 3.19561ZM72.0263 2L57.6677 44.9951L54.3572 55.906H0.0563965L9.81117 70.6989L33.8588 88.7666L42.4274 95.2052L28.0236 142.652L44.6513 138.012L72.0282 117.442L99.4051 138.012L116.033 142.652L101.629 95.2052L134.245 70.6989L144 55.906H89.6955L72.0263 2Z" fill="#2F3749"/>
<path d="M34.5919 112.393L29.3733 111.433L23.0625 108.109V84.1929L25.1078 81.2622L29.8452 79.6718L29.879 79.6285C30.5539 78.7976 30.8528 78.1096 30.9242 77.8333L30.9299 77.8107V56.5303C30.9299 51.1162 33.5241 45.954 37.8686 42.7224L37.9344 42.6736L38.2521 39.9477L50.6067 27.3806L58.162 37.3741H85.8924L93.4477 27.3806L105.802 39.9477L106.12 42.6736L106.186 42.7224C110.53 45.954 113.125 51.1162 113.125 56.5303V77.8107L113.13 77.8333C113.202 78.1096 113.501 78.7976 114.175 79.6285L114.209 79.6718L118.947 81.2622L120.992 84.1929V108.111L114.681 111.435L109.461 112.395L72.0263 128.028L34.5919 112.393Z" fill="#252830"/>
<path d="M93.4647 27.6663L105.622 40.0323L105.923 42.6134L105.942 42.775L106.071 42.8728C110.369 46.0686 112.935 51.1744 112.935 56.5302V77.7862V77.8332L112.946 77.8783C113.046 78.2675 113.42 78.9969 114.027 79.7451L114.097 79.8297L114.2 79.8635L118.826 81.4182L120.802 84.2493V107.996L114.617 111.254L109.446 112.205L109.406 112.213L109.369 112.228L72.0264 127.822L34.6822 112.228L34.6446 112.213L34.6052 112.205L29.4336 111.254L23.2487 107.998V84.2512L25.2245 81.42L29.8509 79.8654L29.9543 79.8315L30.0239 79.7469C30.6311 78.9969 31.0052 78.2693 31.1048 77.8802L31.1161 77.8351V77.7881V56.5302C31.1161 51.1744 33.6821 46.0686 37.9777 42.8728L38.1074 42.775L38.1262 42.6134L38.427 40.0323L50.5843 27.6663L53.1804 31.1009L53.8572 31.9938L57.9516 37.4098L58.0644 37.5583H58.2524H85.7985H85.9865L86.0993 37.4098L93.4647 27.6663ZM93.429 27.0929L85.7985 37.1842H58.2542L53.4831 30.8734L50.6237 27.0911L38.0698 39.8593L37.754 42.5701C33.3625 45.8374 30.7401 51.0541 30.7401 56.5283V77.7862C30.6668 78.072 30.351 78.7468 29.7306 79.5101L24.9857 81.1042L22.8708 84.1346V108.225L29.3076 111.615L34.5356 112.577L72.0245 128.233L109.511 112.577L114.739 111.615L121.176 108.225V84.1327L119.061 81.1023L114.318 79.5082C113.698 78.745 113.382 78.0701 113.309 77.7843V56.5302C113.309 51.0579 110.686 45.8393 106.295 42.572L105.979 39.8631L93.429 27.0929Z" fill="#2F3749"/>
<path d="M24.1436 76.0623L17.9099 60.2279H30.7402V77.7861C30.6669 78.0719 30.351 78.7468 29.7307 79.51L29.0407 79.7412L24.1436 76.0623ZM79.499 37.1841L78.6737 34.4639L72.0264 27.3993L65.3791 34.4639L64.5539 37.1841H79.499V37.1841ZM8.08179 60.2279L13.0052 67.6949L22.4705 74.8065L15.5732 60.2298H8.08179V60.2279ZM77.6003 30.9279L72.0264 12.5613L66.4525 30.9279L72.0264 25.7469L77.6003 30.9279ZM113.311 60.2279V77.7861C113.384 78.0719 113.7 78.7468 114.32 79.51L115.01 79.7412L119.907 76.0604L126.141 60.226H113.311V60.2279ZM90.9495 126.255L101.349 134.068L109.607 136.373L107.703 130.098L90.9495 126.255ZM128.48 60.2279L121.582 74.8046L131.048 67.693L135.971 60.226H128.48V60.2279ZM34.4454 136.373L42.7038 134.068L53.1034 126.255L36.3498 130.098L34.4454 136.373ZM40.8672 115.219L37.0886 127.665L55.0453 124.795L58.1735 122.445L40.8672 115.219ZM103.186 115.219L85.8794 122.447L89.0075 124.797L106.964 127.667L103.186 115.219Z" fill="url(#paint0_radial_1439_27555)"/>
<path d="M51.3701 35.4245L41.23 42.9667L50.1858 33.8567L51.3701 35.4245ZM39.2768 77.6131L39.3294 56.7463C39.3369 53.3211 40.9705 50.1009 43.7302 48.0706L51.5055 42.3482L53.0564 44.3991L53.9775 45.6192H72.0264H90.0753L90.9964 44.3991L92.5474 42.3482L100.323 48.0706C103.082 50.1009 104.714 53.3211 104.723 56.7463L104.776 77.6131C104.776 80.1322 105.874 83.0836 109.309 85.5256H116.749L116.268 84.8376L111.829 83.3468C110.025 81.5666 108.882 79.3727 108.882 77.9008V56.5301C108.882 52.4301 106.944 48.5725 103.654 46.1268L91.4514 37.0525L88.0018 41.615H72.0264H56.0511L52.6015 37.0525L40.3991 46.1268C37.1092 48.5725 35.1711 52.4319 35.1711 56.5301V77.9026C35.1711 79.3727 34.0281 81.5684 32.2234 83.3487L27.785 84.8395L27.3037 85.5275H34.7443C38.177 83.0855 39.2768 80.1322 39.2768 77.6131ZM93.8671 33.8567L92.6827 35.4245L102.823 42.9667L93.8671 33.8567ZM72.0264 117.422L35.4944 105.548H27.3037L30.7759 107.378L35.8065 108.302L72.0264 123.428L108.246 108.302L113.277 107.378L116.749 105.548H108.558L72.0264 117.422ZM72.0264 112.889L82.4786 109.494H61.5742L72.0264 112.889Z" fill="#7483AD"/>
<path d="M59.3333 83.503C59.0551 82.8751 58.916 82.2773 58.916 81.7284V79.1172H54.3572V83.0274H50.2327V75.0736H53.4191L54.2425 72.7274H50.2327V67.7758H54.3572V69.5692H58.9066L58.9141 65.4297H45.674V79.1416C45.674 80.0666 45.4371 81.0723 44.9709 82.1307C44.5047 83.1872 44.0046 84.0256 43.4877 84.6215L42.6943 85.5295H60.6906L60.2168 84.9862C59.9085 84.6291 59.6115 84.1309 59.3333 83.503Z" fill="white"/>
<path d="M83.3621 85.5277H101.358L100.567 84.6197C100.048 84.0237 99.548 83.1853 99.0817 82.1288C98.6155 81.0704 98.3787 80.059 98.3787 79.1228V79.1172H93.8425V83.0274H89.6954V67.7758H92.9119L93.7353 65.4297H85.1386V65.4353C85.1404 68.007 85.1386 81.7303 85.1386 81.7303C85.1386 82.2792 84.9976 82.877 84.7212 83.5049C84.443 84.1328 84.1479 84.6309 83.8396 84.9844L83.3621 85.5277Z" fill="white"/>
<path d="M81.0085 70.402C81.0085 69.682 81.1495 68.9019 81.4277 68.0803C81.706 67.2569 82.0011 66.6027 82.3094 66.1403L82.7813 65.4297H76.4272L72.0264 73.9719L67.6255 65.4297H61.2715L61.7433 66.1384C62.0516 66.6027 62.3487 67.2569 62.625 68.0803C62.9014 68.9019 63.0423 69.6839 63.0423 70.4039L63.0442 71.6108C63.048 73.7257 63.0555 76.0774 63.063 80.4369C63.0649 81.5611 63.5161 82.6608 64.3 83.4541L67.6255 86.821V72.547L72.0245 80.2827L76.4234 72.547V86.821L79.749 83.4541C80.5329 82.6608 80.9841 81.5611 80.9859 80.4369L81.0085 70.402Z" fill="white"/>
<path d="M72.0262 85.5857L70.105 86.819L72.0262 81.5383L73.9475 86.819L72.0262 85.5857Z" fill="#FF6A13"/>
<path d="M91.9682 62.0759H52.0843C48.5257 62.0759 45.6118 59.164 45.6118 55.6034V55.5997C45.6118 52.041 48.5238 49.1272 52.0843 49.1272H91.9682C95.5268 49.1272 98.4406 52.0392 98.4406 55.5997V55.6034C98.4406 59.1621 95.5268 62.0759 91.9682 62.0759Z" fill="white"/>
<path d="M85.4937 55.6014C85.4937 53.5786 86.3641 51.7908 87.7796 50.5576C87.8605 50.4862 87.8041 50.3884 87.7458 50.3884C87.7026 50.3884 52.0879 50.3884 52.0879 50.3884C49.2079 50.3884 46.875 52.7233 46.875 55.6014C46.875 58.4814 49.2098 60.8143 52.0879 60.8143C52.0879 60.8143 87.6537 60.8143 87.7233 60.8143C87.7815 60.8143 87.8661 60.7241 87.7571 60.6301C86.3678 59.3988 85.4937 57.6016 85.4937 55.6014Z" fill="#252830"/>
<path d="M72.0995 53.1896C72.0995 53.3832 71.9416 53.5393 71.7479 53.5393H71.2065C71.0129 53.5393 70.855 53.3832 70.855 53.1896V52.7723C70.855 52.5786 71.0129 52.4226 71.2065 52.4226H71.7479C71.9416 52.4226 72.0995 52.5786 72.0995 52.7723V53.1896Z" fill="white"/>
<path d="M69.402 52.7854C69.402 52.5918 69.2647 52.4358 69.0711 52.4358H68.509C68.3154 52.4358 68.1575 52.5918 68.1575 52.7854V58.3932C68.1575 58.5868 68.3154 58.7428 68.509 58.7428H69.0504C69.2441 58.7428 69.402 58.5868 69.402 58.3932V52.7854Z" fill="white"/>
<path d="M83.1119 56.1409C83.0893 55.4585 82.8976 54.9265 82.5366 54.5505C82.1513 54.1501 81.6324 53.949 80.982 53.949C80.5759 53.949 80.2244 54.0204 79.9292 54.1633C79.6341 54.3062 79.3897 54.4923 79.1998 54.7254C79.0081 54.9566 78.869 55.2235 78.7787 55.5225C78.6885 55.8232 78.6453 56.1297 78.6453 56.4455C78.6453 56.8553 78.7017 57.2106 78.8145 57.5095C78.9272 57.8103 79.0889 58.0566 79.2976 58.2539C79.5063 58.4494 79.7619 58.5961 80.0627 58.6901C80.3635 58.7841 80.7 58.8329 81.0703 58.8329C81.3279 58.8329 81.5892 58.801 81.8542 58.739C81.9407 58.7183 82.0234 58.6938 82.1024 58.6675C82.1381 58.6581 82.187 58.6412 82.2565 58.6111C82.6306 58.457 82.8863 58.2464 82.8863 58.2464C83.0292 58.1581 83.0724 57.972 82.9841 57.831L82.7453 57.4512C82.657 57.3102 82.469 57.2839 82.328 57.3723C82.328 57.3723 81.8787 57.6599 81.623 57.7388C81.4839 57.7821 81.2959 57.8253 81.1042 57.8253C80.3691 57.8253 79.9725 57.4606 79.9123 56.7293L82.7698 56.7312C82.9577 56.7312 83.1025 56.5808 83.1119 56.391V56.1823C83.1157 56.1691 83.1138 56.156 83.1119 56.1409ZM79.9612 55.812C79.9913 55.5112 80.1003 55.2837 80.2883 55.1277C80.4763 54.9716 80.6981 54.8946 80.9557 54.8946C81.1173 54.8946 81.2546 54.9209 81.3673 54.9754C81.4801 55.0299 81.5741 55.1014 81.6493 55.1916C81.7245 55.2818 81.779 55.3815 81.8148 55.4886C81.8505 55.5958 81.8693 55.7048 81.8693 55.812H79.9612Z" fill="white"/>
<path d="M77.6827 55.1935C77.6527 54.9473 77.5605 54.7236 77.4045 54.5205C77.256 54.3363 77.0774 54.1953 76.8706 54.0976C76.6638 53.9998 76.4063 53.9509 76.0961 53.9509C75.7728 53.9509 75.4945 54.0205 75.2577 54.1596C75.0208 54.2987 74.8403 54.4604 74.7163 54.6446V54.5375V54.357C74.7163 54.169 74.564 54.0167 74.3741 54.0167H73.8478C73.6598 54.0167 73.5056 54.169 73.5056 54.357V58.4063C73.5056 58.598 73.6616 58.7541 73.8553 58.7541H74.3929C74.5866 58.7541 74.7426 58.598 74.7426 58.4063C74.7426 58.4063 74.7445 56.2519 74.7463 56.1166C74.7501 55.9793 74.7651 55.8571 74.7952 55.75C74.814 55.6786 74.8422 55.6015 74.8855 55.5169C74.9268 55.4342 74.987 55.3552 75.064 55.28C75.1411 55.2067 75.237 55.1428 75.3498 55.092C75.4626 55.0413 75.6017 55.0168 75.7615 55.0168C75.9175 55.0168 76.0491 55.0413 76.16 55.0883C76.2709 55.1353 76.3537 55.2199 76.4063 55.3383C76.4608 55.4567 76.4871 55.6485 76.4871 55.9098V58.4063C76.4871 58.598 76.6432 58.7541 76.8368 58.7541H77.3744C77.5681 58.7541 77.7241 58.598 77.7241 58.4063V58.2521V55.891C77.7279 55.6729 77.7128 55.4398 77.6827 55.1935Z" fill="white"/>
<path d="M50.68 53.2649C50.6386 53.1333 50.6179 53.0243 50.6179 52.9359C50.6179 52.7818 50.6612 52.6765 50.7871 52.5919C50.8867 52.5242 51.0917 52.5355 51.3003 52.5299C51.6613 52.5224 51.806 52.5111 51.9282 52.8288C51.9282 52.8288 52.8738 56.6393 52.9001 56.7747C52.9264 56.9119 52.949 57.0247 52.9678 57.1131C52.9866 57.0116 53.0073 56.9025 53.0298 56.7841C53.0543 56.6657 53.9641 54.124 53.9641 54.124C54.0111 53.9342 54.1333 53.8402 54.2706 53.7819C54.3082 53.765 54.3533 53.7462 54.4078 53.7462C54.5507 53.7462 54.8007 53.7443 54.9003 53.7462C54.9868 53.7462 55.0695 53.7424 55.1315 53.7744C55.2744 53.8402 55.3853 53.953 55.4323 54.1428C55.4323 54.1428 56.4024 56.6844 56.4287 56.8066C56.455 56.9288 56.4757 57.0285 56.487 57.1055C56.4982 57.0341 56.517 56.942 56.5415 56.8292C56.5659 56.7051 57.5453 52.8288 57.5453 52.8288C57.6807 52.513 57.801 52.5468 58.1732 52.5468C58.3819 52.5468 58.4984 52.528 58.6169 52.5976C58.7579 52.6803 58.7917 52.8006 58.7917 52.9435C58.7917 52.9905 58.7879 53.045 58.7785 53.1032C58.7691 53.1634 58.7522 53.2254 58.7297 53.2912L57.2521 58.3237C57.2032 58.4816 57.113 58.5719 56.9832 58.6245C56.9362 58.6452 56.8836 58.6546 56.8366 58.6546C56.6956 58.6546 56.1768 58.6546 56.1768 58.6546C56.0696 58.6546 56.0207 58.6452 55.9512 58.617C55.8064 58.5399 55.7331 58.4365 55.6918 58.288C55.6918 58.288 54.7217 55.376 54.7142 55.3215C54.7086 55.3685 53.7103 58.3143 53.7103 58.3143C53.6633 58.4816 53.5731 58.5606 53.4378 58.6207C53.3945 58.6395 53.3419 58.6452 53.3118 58.6452C53.1708 58.6452 52.605 58.6452 52.605 58.6452C52.5392 58.6452 52.464 58.6189 52.4264 58.6001C52.2967 58.5361 52.2196 58.4252 52.1707 58.2786L50.68 53.2649Z" fill="white"/>
<path d="M61.0814 53.1896C61.0814 53.3832 60.9235 53.5393 60.7299 53.5393H60.1885C59.9948 53.5393 59.8369 53.3832 59.8369 53.1896V52.7723C59.8369 52.5786 59.9948 52.4226 60.1885 52.4226H60.7299C60.9235 52.4226 61.0814 52.5786 61.0814 52.7723V53.1896Z" fill="white"/>
<path d="M66.6874 55.1935C66.6573 54.9473 66.5652 54.7236 66.4092 54.5205C66.2606 54.3363 66.0821 54.1953 65.8753 54.0976C65.6685 53.9998 65.4109 53.9509 65.1007 53.9509C64.7774 53.9509 64.4992 54.0205 64.2623 54.1596C64.0255 54.2987 63.845 54.4604 63.7209 54.6446V54.5375V54.3589C63.7209 54.1709 63.5686 54.0186 63.3788 54.0186H62.8524C62.6644 54.0186 62.5103 54.1709 62.5103 54.3589V58.4082C62.5103 58.5999 62.6663 58.7559 62.8599 58.7559H63.3976C63.5912 58.7559 63.7472 58.5999 63.7472 58.4082V56.4662C63.7472 56.3704 63.7491 56.2557 63.751 56.1184C63.7547 55.9812 63.7698 55.859 63.7999 55.7519C63.8187 55.6804 63.8469 55.6034 63.8901 55.5188C63.9315 55.436 63.9916 55.3571 64.0687 55.2819C64.1458 55.2086 64.2416 55.1447 64.3563 55.0939C64.4691 55.0432 64.6082 55.0187 64.768 55.0187C64.924 55.0187 65.0556 55.0431 65.1665 55.0901C65.2775 55.1371 65.3583 55.2217 65.4128 55.3402C65.4673 55.4586 65.4937 55.6504 65.4937 55.9117V58.4082C65.4937 58.5999 65.6497 58.7559 65.8433 58.7559H66.381C66.5746 58.7559 66.7306 58.5999 66.7306 58.4082V55.8929C66.7325 55.6729 66.7175 55.4398 66.6874 55.1935Z" fill="white"/>
<path d="M60.7299 54.0393H60.1885C59.9949 54.0393 59.837 54.1953 59.837 54.389L59.8257 58.3894C59.8257 58.5849 59.9855 58.7428 60.181 58.7428H60.728C60.9235 58.7428 61.0833 58.5849 61.0833 58.3894V54.389C61.0815 54.1953 60.9235 54.0393 60.7299 54.0393Z" fill="white"/>
<path d="M71.7536 54.0393H71.2122C71.0186 54.0393 70.8606 54.1953 70.8606 54.389L70.8494 58.3894C70.8494 58.5849 71.0092 58.7428 71.2047 58.7428H71.7517C71.9472 58.7428 72.107 58.5849 72.107 58.3894V54.389C72.1051 54.1953 71.9472 54.0393 71.7536 54.0393Z" fill="white"/>
<path d="M97.1793 55.6014C97.1793 58.4814 94.8445 60.8143 91.9664 60.8143C89.0864 60.8143 86.7534 58.4795 86.7534 55.6014C86.7534 52.7214 89.0883 50.3884 91.9664 50.3884C94.8464 50.3884 97.1793 52.7214 97.1793 55.6014Z" fill="#FF6A13"/>
<path d="M33.5017 89.4548C33.5506 89.5695 33.5976 89.7292 33.6427 89.9342C33.6878 90.1391 33.7103 90.3308 33.7103 90.5094L32.0598 94.6151L29.9017 89.28H27.3713L27.4465 89.4529C27.4954 89.5676 27.5424 89.7274 27.5875 89.9323C27.6326 90.1372 27.6552 90.3289 27.6552 90.5075C27.6552 90.891 27.6608 94.6527 27.6702 101.791H29.9017V93.7127L32.0598 98.952L34.2179 93.7127V101.791H36.4494C36.4494 100.409 36.4512 99.1908 36.4569 98.1343C36.4625 97.0778 36.4644 95.9818 36.4644 94.8426C36.4644 93.7034 36.4644 92.613 36.4644 91.5715C36.4644 90.5282 36.4644 89.765 36.4644 89.2781H33.4434L33.5017 89.4548Z" fill="white"/>
<path d="M37.7276 89.4547C37.7765 89.5581 37.8235 89.7141 37.8686 89.9247C37.9137 90.1352 37.9363 90.3307 37.9363 90.5093V99.8167V101.792L43.5008 101.755C43.6305 101.755 43.7508 101.723 43.8655 101.659C43.9801 101.595 44.076 101.512 44.155 101.409C44.2339 101.306 44.2979 101.181 44.3486 101.035C44.3975 100.888 44.4238 100.73 44.4238 100.565V98.8955H42.2074V100.24H40.1696V94.8481H42.1924L42.5947 93.2934H40.1846L40.1696 90.7405H42.2224L42.2074 91.8534H44.4238V89.2817H37.6543L37.7276 89.4547Z" fill="white"/>
<path d="M52.1727 89.6182C52.0937 89.5092 51.9941 89.4265 51.8756 89.3682C51.7572 89.3099 51.6369 89.2817 51.5184 89.2817H45.6118L45.687 89.4547C45.7359 89.5694 45.7866 89.7292 45.8355 89.9341C45.8844 90.139 45.9107 90.3307 45.9107 90.5093V101.792H51.5203C51.7779 101.792 51.9959 101.674 52.1745 101.437C52.3531 101.2 52.4415 100.922 52.4415 100.602V100.565V90.9699C52.4415 90.8684 52.4415 90.7011 52.4415 90.4717C52.4415 90.3063 52.417 90.1484 52.3663 90.0017C52.3174 89.8551 52.2535 89.7273 52.1727 89.6182ZM50.21 100.24H48.1422V90.7405H50.21V100.24Z" fill="white"/>
<path d="M53.6917 89.4547C53.7406 89.5694 53.7876 89.7292 53.8327 89.9341C53.8778 90.139 53.9004 90.3307 53.9004 90.5093C53.9004 90.9191 53.9098 94.6808 53.9305 101.792H56.1469V89.2817H53.6184L53.6917 89.4547Z" fill="white"/>
<path d="M58.5718 89.2837L58.647 89.4566C58.6959 89.5845 58.7448 89.748 58.788 89.9454C58.8331 90.1447 58.8557 90.3327 58.8557 90.5113C58.835 90.6654 58.3293 94.4252 57.3386 101.794H59.6001L60.3145 96.4216H62.2038L62.9182 101.794H65.1797L63.4539 89.2837H58.5718V89.2837ZM60.5194 94.8482L61.0702 90.7406H61.4424L61.9932 94.8482H60.5194Z" fill="white"/>
<path d="M91.0922 89.9454C91.1373 89.748 91.1843 89.5845 91.2331 89.4566L91.3083 89.2837H86.4281L84.7024 101.794H86.9639L87.6783 96.4216H89.5676L90.2819 101.794H92.5434C91.5509 94.4252 91.0452 90.6654 91.0264 90.5113C91.0245 90.3327 91.047 90.1428 91.0922 89.9454ZM87.8851 94.8482L88.4359 90.7406H88.8081L89.3589 94.8482H87.8851Z" fill="white"/>
<path d="M73.4381 100.24H71.5338V90.7405H72.3083L72.3233 89.2817H69.3042C69.3061 91.8929 69.3098 96.7882 69.3174 101.792H74.6149C74.8724 101.792 75.0943 101.674 75.2766 101.437C75.4609 101.2 75.5511 100.916 75.5511 100.584V98.8955H73.4381V100.24V100.24Z" fill="white"/>
<path d="M77.0249 89.2837V99.8186V101.794L82.5894 101.757C82.7172 101.757 82.8394 101.725 82.9541 101.661C83.0688 101.597 83.1646 101.514 83.2436 101.411C83.3225 101.308 83.3865 101.183 83.4372 101.037C83.4861 100.89 83.5124 100.732 83.5124 100.567V98.8975H81.296V100.242H79.2563V94.8501H81.2791L81.6814 93.2954H79.2714L79.2563 90.7425H81.3092L81.2941 91.8554H83.5105V90.5113C83.5105 90.3327 83.5331 90.1372 83.5782 89.9266C83.6233 89.7161 83.6703 89.5582 83.7192 89.4566L83.7944 89.2837H83.5124H77.0249V89.2837Z" fill="white"/>
<path d="M94.0154 89.2837V99.9916V101.796H99.5498C99.6776 101.796 99.7998 101.764 99.9145 101.7C100.029 101.636 100.127 101.55 100.212 101.441C100.296 101.332 100.362 101.204 100.413 101.057C100.462 100.911 100.488 100.753 100.488 100.588V100.569V93.2954H96.9612L97.3635 94.8689H98.2715V100.242H96.2487V90.7425H98.2715V91.8554H100.488V91.0113V90.5131C100.488 90.3345 100.51 90.139 100.556 89.9285C100.601 89.7179 100.648 89.56 100.697 89.4585L100.772 89.2856H100.49H94.0154V89.2837Z" fill="white"/>
<path d="M106.265 100.24H104.197V90.5112C104.197 90.3965 104.206 90.2743 104.227 90.1465C104.248 90.0187 104.272 89.9059 104.302 89.81C104.332 89.7141 104.362 89.6239 104.391 89.5412C104.421 89.4584 104.445 89.3908 104.466 89.34L104.496 89.2817H101.966V100.623C101.966 100.943 102.054 101.217 102.233 101.448C102.411 101.68 102.624 101.794 102.872 101.794H107.573C107.821 101.794 108.034 101.68 108.212 101.448C108.391 101.219 108.481 100.943 108.481 100.623V100.048C108.493 96.5494 108.502 92.2877 108.506 89.2817H106.265V100.24V100.24Z" fill="white"/>
<path d="M108.506 90.5113C108.506 90.3327 108.528 90.1372 108.573 89.9266C108.618 89.7161 108.665 89.5582 108.714 89.4566L108.789 89.2837H108.507V90.5113H108.506Z" fill="white"/>
<path d="M116.467 89.2837H109.979V99.8186V101.794L115.544 101.757C115.672 101.757 115.794 101.725 115.909 101.661C116.023 101.597 116.119 101.514 116.198 101.411C116.277 101.308 116.341 101.183 116.392 101.037C116.441 100.89 116.467 100.732 116.467 100.567V98.8975H114.251V100.242H112.211V94.8501H114.234L114.636 93.2954H112.226L112.211 90.7425H114.264L114.249 91.8554H116.465V90.5113C116.465 90.3327 116.488 90.1372 116.533 89.9266C116.578 89.7161 116.625 89.5582 116.674 89.4566L116.749 89.2837H116.467V89.2837Z" fill="white"/>
<path d="M40.8672 115.219L37.0886 127.666L41.5985 126.946L48.18 118.272L40.8672 115.219Z" fill="#FF9017"/>
<path d="M30.7402 60.228H17.9099L19.8011 65.0312L30.7402 69.5166V60.228Z" fill="#FF9017"/>
<path d="M8.08179 60.228L17.3741 64.0367L15.5713 60.228H8.08179Z" fill="#FF9017"/>
<path d="M76.0249 25.7375L72.0264 12.5613L68.0278 25.7375L72.0264 22.0209L76.0249 25.7375Z" fill="#FF9017"/>
<path d="M34.4456 136.373L39.8089 129.305L36.3499 130.098L34.4456 136.373Z" fill="#FF9017"/>
<path d="M128.48 60.228L126.679 64.0367L135.969 60.228H128.48Z" fill="#FF9017"/>
<path d="M113.311 69.5166L124.252 65.0312L126.143 60.228H113.311V69.5166Z" fill="#FF9017"/>
<path d="M103.186 115.219L95.8728 118.272L102.452 126.946L106.964 127.666L103.186 115.219Z" fill="#FF9017"/>
<path d="M104.244 129.305L109.607 136.373L107.703 130.098L104.244 129.305Z" fill="#FF9017"/>
<defs>
<radialGradient id="paint0_radial_1439_27555" cx="0" cy="0" r="1" gradientUnits="userSpaceOnUse" gradientTransform="translate(72.0262 74.4669) scale(62.9331 62.9331)">
<stop offset="0.5503" stop-color="#FA5000"/>
<stop offset="0.6769" stop-color="#FB5900"/>
<stop offset="0.8826" stop-color="#FD7100"/>
<stop offset="1" stop-color="#FF8200"/>
</radialGradient>
</defs>
</svg>
