<svg width="144" height="144" viewBox="0 0 144 144" fill="none" xmlns="http://www.w3.org/2000/svg">
<path fill-rule="evenodd" clip-rule="evenodd" d="M43.0542 76.4127V61.528H88.3875C90.3875 61.528 92.1209 62.1866 93.3209 63.5038C94.5209 64.8211 95.1875 66.6652 95.1875 68.7728C95.1875 71.2755 94.6542 73.1197 93.4542 74.4369C92.2542 75.7541 90.6542 76.4127 88.5209 76.4127H43.0542ZM43.0542 44.5357V30.8364H86.1209C87.9875 30.8364 89.4542 31.4951 90.6542 32.6806C91.8542 33.9978 92.3876 35.5785 92.3876 37.6861C92.3876 39.9254 91.8542 41.6378 90.7875 42.8233C89.7209 44.0088 88.1209 44.5357 86.1209 44.5357H43.0542ZM114.388 89.9802C118.388 86.4237 120.521 80.6279 120.521 72.8562C120.521 66.7969 119.321 62.3183 117.054 59.0252C114.654 55.8639 111.054 53.7563 105.988 52.966C109.988 51.3853 113.054 49.146 114.921 46.2481C116.788 43.3502 117.854 39.7936 117.854 35.315C117.854 27.5434 115.588 21.6158 111.188 17.7958C106.788 13.9758 99.9875 12 91.0542 12H18.6542V95.1175H94.7875C103.721 95.3809 110.388 93.5368 114.388 89.9802Z" fill="#212121"/>
<path fill-rule="evenodd" clip-rule="evenodd" d="M0 112.505H144L5.46666 132L0 112.505Z" fill="#212121"/>
</svg>
