<svg width="145" height="145" viewBox="0 0 145 145" fill="none" xmlns="http://www.w3.org/2000/svg">
<g clip-path="url(#clip0_1751_150831)">
<path d="M144.025 56.7661L120.095 47.9882L96.0602 56.7661L72.0254 47.9882L47.9906 56.7661L24.0602 47.9882L0.0253906 56.7661V87.2799L24.0602 96.0579L47.9906 87.2799L72.0254 96.0579L96.0602 87.2799L120.095 96.0579L144.025 87.2799V56.7661Z" fill="black"/>
<path d="M144.025 8.69607L120.095 0.0226271L96.0602 8.69607L72.0254 0.0226271L47.9906 8.69607L24.0602 0.0226271L0.0253906 8.69607V39.3144L24.0602 47.9878L47.9906 39.3144L72.0254 47.9878L96.0602 39.3144L120.095 47.9878L144.025 39.3144V8.69607Z" fill="#28BE46"/>
<path d="M47.9906 8.69643L23.9557 17.4744L0.0253906 8.69643L23.9557 0.0229866L47.9906 8.69643Z" fill="black"/>
<path d="M96.0601 8.69643L72.0253 17.4744L47.9905 8.69643L72.0253 0.0229866L96.0601 8.69643Z" fill="black"/>
<path d="M144.026 8.69643L119.991 17.4744L96.0605 8.69643L119.991 0.0229866L144.026 8.69643Z" fill="black"/>
<path d="M0.0253906 87.2799L23.9557 78.6065L47.9906 87.2799L23.9557 96.0579L0.0253906 87.2799Z" fill="#28BE46"/>
<path d="M96.0605 87.2799L120.095 78.6065L144.026 87.2799L120.095 96.0579L96.0605 87.2799Z" fill="#28BE46"/>
<path d="M96.0601 56.7661L72.0253 65.5441L47.9905 56.7661V87.2799L72.0253 96.0579L96.0601 87.2799V56.7661Z" fill="#28BE46"/>
<path d="M144.025 104.731L120.095 96.0578L96.0602 104.731L72.0254 96.0578L47.9906 104.731L24.0602 96.0578L0.0253906 104.731V135.35L24.0602 144.023L47.9906 135.35L72.0254 144.023L96.0602 135.35L120.095 144.023L144.025 135.35V104.731Z" fill="black"/>
<path d="M0.0253906 135.35L23.9557 126.572L47.9906 135.35L23.9557 144.023L0.0253906 135.35Z" fill="#28BE46"/>
<path d="M96.0605 135.35L120.095 126.572L144.026 135.35L120.095 144.023L96.0605 135.35Z" fill="#28BE46"/>
<path d="M96.0601 104.731L72.0253 113.509L47.9905 104.731V135.35L72.0253 144.023L96.0601 135.35V104.731Z" fill="#28BE46"/>
</g>
<defs>
<clipPath id="clip0_1751_150831">
<rect width="144" height="144" fill="white" transform="matrix(1 0 0 -1 0.0253906 144.023)"/>
</clipPath>
</defs>
</svg>
