<svg width="144" height="144" viewBox="0 0 144 144" fill="none" xmlns="http://www.w3.org/2000/svg">
<g clip-path="url(#clip0_1751_188224)">
<path d="M25.5 0H118.5C132.6 0 144 11.6923 144 26.1538V117.846C144 132.308 132.6 144 118.5 144H25.5C11.4 144 0 132.308 0 117.846V26.1538C0 11.6923 11.4 0 25.5 0Z" fill="#00005B"/>
<path d="M57.8399 86.1538H35.5199L30.9599 100.677C30.8399 101.231 30.3599 101.6 29.8199 101.538H18.5399C17.8799 101.538 17.6999 101.169 17.8799 100.431L37.1999 43.6308C37.3799 43.0154 37.5599 42.4615 37.7999 41.7231C38.0399 40.4308 38.1599 39.0769 38.1599 37.7231C38.0999 37.4154 38.3399 37.1077 38.6399 37.0461C38.6999 37.0461 38.7599 37.0461 38.8199 37.0461H54.1799C54.5999 37.0461 54.8999 37.2308 54.9599 37.5384L76.8599 100.615C77.0399 101.292 76.8599 101.6 76.2599 101.6H63.7199C63.2999 101.662 62.8799 101.354 62.7599 100.923L57.8399 86.1538ZM38.9999 73.9077H54.2399C53.8799 72.6154 53.3999 71.0769 52.8599 69.4769C52.3199 67.8154 51.7799 66.0308 51.2399 64.1846C50.6399 62.2769 50.0999 60.4308 49.4999 58.5231C48.8999 56.6154 48.3599 54.8308 47.8799 53.0461C47.3999 51.3231 46.9799 49.7231 46.5599 48.2461H46.4399C45.8999 50.8923 45.2399 53.5385 44.3999 56.1846C43.4999 59.1385 42.5999 62.2154 41.6399 65.2923C40.8599 68.4308 39.8999 71.3231 38.9999 73.9077Z" fill="#9999FF"/>
<path d="M112.44 80.4924H93.4199C93.6599 82.4001 94.2599 84.3078 95.2799 85.9693C96.3599 87.6309 97.8599 88.9232 99.6599 89.6616C102.06 90.7078 104.7 91.2616 107.34 91.2001C109.44 91.1386 111.54 90.954 113.58 90.5232C115.44 90.277 117.24 89.7847 118.92 89.1078C119.22 88.8616 119.4 88.9847 119.4 89.6001V99.0155C119.4 99.2616 119.34 99.5078 119.28 99.754C119.16 99.9386 119.04 100.062 118.86 100.185C116.94 101.046 114.96 101.662 112.86 102.031C110.04 102.585 107.22 102.831 104.34 102.769C99.7799 102.769 95.9399 102.031 92.8199 100.615C89.8799 99.3232 87.2999 97.2924 85.2599 94.7693C83.3399 92.3693 81.9599 89.6616 81.1199 86.7078C80.2799 83.8155 79.8599 80.8001 79.8599 77.7232C79.8599 74.4001 80.3399 71.1386 81.3599 67.9386C82.3199 64.8616 83.8199 62.0309 85.8599 59.5078C87.8399 57.0463 90.2999 55.077 93.1199 53.6616C95.9399 52.2463 99.2999 51.7539 103.14 51.7539C106.32 51.6924 109.5 52.3078 112.44 53.6616C114.9 54.7693 117.06 56.4309 118.74 58.5847C120.3 60.677 121.56 63.0155 122.34 65.6001C123.12 68.0616 123.48 70.5847 123.48 73.1078C123.48 74.5847 123.42 75.877 123.36 77.0463C123.24 78.2155 123.18 79.077 123.12 79.6309C123.06 80.0616 122.7 80.4309 122.28 80.4309C121.92 80.4309 121.26 80.4924 120.3 80.5539C119.34 80.677 118.2 80.7386 116.82 80.7386C115.44 80.7386 114 80.4924 112.44 80.4924ZM93.4199 71.5078H106.08C107.64 71.5078 108.78 71.5078 109.5 71.4463C109.98 71.3847 110.46 71.2616 110.88 70.9539V70.3386C110.88 69.5386 110.76 68.8001 110.52 68.0616C109.44 64.6155 106.26 62.277 102.72 62.4001C99.4199 62.2155 96.2999 64.0001 94.7399 67.077C94.0199 68.4924 93.5999 69.9693 93.4199 71.5078Z" fill="#9999FF"/>
</g>
<defs>
<clipPath id="clip0_1751_188224">
<rect width="144" height="144" fill="white"/>
</clipPath>
</defs>
</svg>
