<svg width="144" height="144" viewBox="0 0 144 144" fill="none" xmlns="http://www.w3.org/2000/svg">
<rect width="144" height="144" rx="26" fill="#212121"/>
<g clip-path="url(#clip0_1751_188205)">
<path d="M56.6699 119C65.3162 119 72.3334 111.981 72.3334 103.333V87.6667H56.6699C48.0236 87.6667 41.0063 94.6854 41.0063 103.333C41.0063 111.981 48.0236 119 56.6699 119Z" fill="#0ACF83"/>
<path d="M41.0063 71.9999C41.0063 63.3519 48.0236 56.3333 56.6699 56.3333H72.3334V87.6666H56.6699C48.0236 87.6666 41.0063 80.6479 41.0063 71.9999Z" fill="#A259FF"/>
<path d="M41.0061 40.6667C41.0061 32.0187 48.0234 25 56.6696 25H72.3332V56.3333H56.6696C48.0234 56.3333 41.0061 49.3147 41.0061 40.6667Z" fill="#F24E1E"/>
<path d="M72.3333 25H87.9968C96.6431 25 103.66 32.0187 103.66 40.6667C103.66 49.3147 96.6431 56.3333 87.9968 56.3333H72.3333V25Z" fill="#FF7262"/>
<path d="M103.66 71.9999C103.66 80.6479 96.6431 87.6666 87.9968 87.6666C79.3505 87.6666 72.3333 80.6479 72.3333 71.9999C72.3333 63.3519 79.3505 56.3333 87.9968 56.3333C96.6431 56.3333 103.66 63.3519 103.66 71.9999Z" fill="#1ABCFE"/>
</g>
<defs>
<clipPath id="clip0_1751_188205">
<rect width="62.6667" height="94" fill="white" transform="translate(41 25)"/>
</clipPath>
</defs>
</svg>
