<svg width="144" height="144" viewBox="0 0 144 144" fill="none" xmlns="http://www.w3.org/2000/svg">
<path d="M141.285 65.5862L78.4094 2.71585C74.7917 -0.905283 68.9194 -0.905283 65.2971 2.71585L52.2417 15.7731L68.8021 32.3341C72.652 31.0342 77.0647 31.9057 80.1321 34.9738C83.2154 38.0611 84.0807 42.5116 82.7482 46.3746L98.7095 62.3365C102.571 61.0057 107.026 61.8655 110.11 64.9545C114.421 69.2642 114.421 76.2478 110.11 80.5587C105.798 84.871 98.815 84.871 94.5011 80.5587C91.2597 77.3146 90.458 72.5518 92.0998 68.5579L77.2141 53.6717L77.2129 92.8446C78.2638 93.3649 79.2557 94.0593 80.1315 94.9313C84.441 99.2406 84.441 106.223 80.1315 110.539C75.8206 114.848 68.8342 114.848 64.5279 110.539C60.2177 106.223 60.2177 99.241 64.5279 94.9313C65.5931 93.868 66.8257 93.0631 68.1408 92.5236V52.9867C66.825 52.4495 65.5939 51.6507 64.5271 50.5788C61.2623 47.3164 60.476 42.5245 62.1504 38.5152L45.8251 22.1868L2.71659 65.2958C-0.905531 68.9197 -0.905531 74.7923 2.71659 78.4136L65.5884 141.284C69.2081 144.905 75.0784 144.905 78.7032 141.284L141.284 78.7107C144.905 75.0878 144.905 69.2134 141.284 65.5915" fill="#F05133"/>
</svg>
