<svg width="144" height="144" viewBox="0 0 144 144" fill="none" xmlns="http://www.w3.org/2000/svg">
<g clip-path="url(#clip0_1751_188244)">
<path d="M25.5 0H118.5C132.6 0 144 11.6923 144 26.1538V117.846C144 132.308 132.6 144 118.5 144H25.5C11.4 144 0 132.308 0 117.846V26.1538C0 11.6923 11.4 0 25.5 0Z" fill="#330000"/>
<path d="M69.7799 86.4H47.4599L42.8999 100.862C42.7799 101.415 42.2999 101.785 41.7599 101.723H30.4799C29.8199 101.723 29.6399 101.354 29.8199 100.615L49.1399 43.5693C49.3199 42.9539 49.4999 42.277 49.7399 41.5385C49.9799 40.2462 50.0999 38.8923 50.0999 37.5385C50.0399 37.2308 50.2799 36.9231 50.5799 36.8616C50.6399 36.8616 50.6999 36.8616 50.7599 36.8616H66.1199C66.5999 36.8616 66.8399 37.0462 66.8999 37.3539L88.7999 100.738C88.9799 101.415 88.7999 101.723 88.1999 101.723H75.6599C75.2399 101.785 74.8199 101.477 74.6999 101.046L69.7799 86.4ZM50.9399 73.9077H66.1799C65.8199 72.6154 65.3399 71.077 64.7999 69.477C64.2599 67.8154 63.7199 66.0308 63.1799 64.1846C62.5799 62.277 62.0399 60.4308 61.4399 58.5231C60.8399 56.6154 60.2999 54.8308 59.8199 53.0462C59.3399 51.3231 58.9199 49.7231 58.4999 48.2462H58.3799C57.8399 50.8923 57.1799 53.5385 56.3399 56.1846C55.4399 59.1385 54.5399 62.2154 53.5799 65.2923C52.7399 68.4308 51.8399 71.3231 50.9399 73.9077Z" fill="#FF9A00"/>
<path d="M101.88 47.3846C99.8998 47.4462 97.9798 46.6462 96.5398 45.2308C95.1598 43.6923 94.4398 41.6616 94.4998 39.5692C94.4398 37.4769 95.2198 35.5077 96.6598 34.0923C98.0998 32.6769 100.02 31.9385 102 31.9385C104.34 31.9385 106.14 32.6769 107.46 34.0923C108.78 35.5692 109.5 37.5385 109.44 39.5692C109.5 41.6616 108.78 43.6923 107.34 45.2308C105.96 46.7077 103.92 47.5077 101.88 47.3846ZM95.1598 100.8V53.4154C95.1598 52.8 95.3998 52.5539 95.9398 52.5539H107.82C108.36 52.5539 108.6 52.8616 108.6 53.4154V100.8C108.6 101.477 108.36 101.785 107.82 101.785H96.0598C95.4598 101.785 95.1598 101.415 95.1598 100.8Z" fill="#FF9A00"/>
</g>
<defs>
<clipPath id="clip0_1751_188244">
<rect width="144" height="144" fill="white"/>
</clipPath>
</defs>
</svg>
