<svg width="144" height="144" viewBox="0 0 144 144" fill="none" xmlns="http://www.w3.org/2000/svg">
<g clip-path="url(#clip0_1826_67340)">
<path d="M25.5 0H118.5C132.6 0 144 11.6923 144 26.1538V117.846C144 132.308 132.6 144 118.5 144H25.5C11.4 144 0 132.308 0 117.846V26.1538C0 11.6923 11.4 0 25.5 0Z" fill="#F7DF1E"/>
<path d="M41.8303 120.247L52.2984 113.912C54.3179 117.492 56.1551 120.522 60.5616 120.522C64.7856 120.522 67.4487 118.87 67.4487 112.443V68.735H80.3035V112.624C80.3035 125.939 72.4991 131.999 61.1127 131.999C50.8294 131.999 44.8601 126.673 41.8301 120.246" fill="black"/>
<path d="M87.2857 118.869L97.7526 112.809C100.508 117.309 104.089 120.614 110.424 120.614C115.751 120.614 119.147 117.951 119.147 114.278C119.147 109.871 115.658 108.31 109.781 105.74L106.569 104.361C97.294 100.414 91.1417 95.4553 91.1417 84.9874C91.1417 75.3461 98.4873 68 109.966 68C118.138 68 124.014 70.8468 128.238 78.2845L118.229 84.7116C116.025 80.7636 113.638 79.2029 109.966 79.2029C106.201 79.2029 103.813 81.5902 103.813 84.7116C103.813 88.5682 106.201 90.1296 111.71 92.5171L114.923 93.8944C125.85 98.5776 132.002 103.352 132.002 114.095C132.002 125.665 122.912 132 110.7 132C98.7633 132 91.0499 126.307 87.2857 118.869Z" fill="black"/>
</g>
<defs>
<clipPath id="clip0_1826_67340">
<rect width="144" height="144" fill="white"/>
</clipPath>
</defs>
</svg>
