<svg width="144" height="144" viewBox="0 0 144 144" fill="none" xmlns="http://www.w3.org/2000/svg">
<g clip-path="url(#clip0_1751_188254)">
<path d="M25.5 0H118.5C132.6 0 144 11.6923 144 26.1538V117.846C144 132.308 132.6 144 118.5 144H25.5C11.4 144 0 132.308 0 117.846V26.1538C0 11.6923 11.4 0 25.5 0Z" fill="#001E36"/>
<path d="M32.3999 100.985V37.6616C32.3999 37.2309 32.5799 36.9847 32.9999 36.9847C34.0199 36.9847 34.9799 36.9847 36.3599 36.9232C37.7999 36.8616 39.2999 36.8616 40.9199 36.8001C42.5399 36.7386 44.2799 36.7386 46.1399 36.677C47.9999 36.6155 49.7999 36.6155 51.5999 36.6155C56.5199 36.6155 60.5999 37.2309 63.9599 38.5232C66.9599 39.5693 69.7199 41.2924 71.9999 43.5693C73.9199 45.5386 75.4199 47.9386 76.3799 50.5847C77.2799 53.1693 77.7599 55.8155 77.7599 58.5847C77.7599 63.877 76.5599 68.2462 74.1599 71.6924C71.7599 75.1386 68.3999 77.7232 64.4999 79.2001C60.4199 80.7386 55.9199 81.2924 50.9999 81.2924C49.5599 81.2924 48.5999 81.2924 47.9999 81.2309C47.3999 81.1693 46.5599 81.1693 45.4199 81.1693V100.923C45.4799 101.354 45.1799 101.723 44.7599 101.785C44.6999 101.785 44.6399 101.785 44.5199 101.785H33.1199C32.6399 101.785 32.3999 101.539 32.3999 100.985ZM45.4799 48.8616V69.5386C46.3199 69.6001 47.0999 69.6616 47.8199 69.6616H50.9999C53.3399 69.6616 55.6799 69.2924 57.8999 68.5539C59.8199 68.0001 61.4999 66.8309 62.8199 65.2924C64.0799 63.7539 64.6799 61.6616 64.6799 58.9539C64.7399 57.0463 64.2599 55.1386 63.2999 53.477C62.2799 51.877 60.8399 50.6462 59.0999 49.9693C56.8799 49.0462 54.4799 48.677 52.0199 48.7386C50.4599 48.7386 49.0799 48.7386 47.9399 48.8001C46.7399 48.7386 45.8999 48.8001 45.4799 48.8616Z" fill="#31A8FF"/>
<path d="M115.2 65.7846C113.4 64.8 111.48 64.1231 109.44 63.6923C107.22 63.2 105 62.8923 102.72 62.8923C101.52 62.8308 100.26 63.0154 99.12 63.3231C98.34 63.5077 97.68 63.9385 97.26 64.5539C96.96 65.0462 96.78 65.6616 96.78 66.2154C96.78 66.7693 97.02 67.3231 97.38 67.8154C97.92 68.4923 98.64 69.0462 99.42 69.477C100.8 70.2154 102.24 70.8923 103.68 71.5077C106.92 72.6154 110.04 74.1539 112.92 76C114.9 77.2923 116.52 79.0154 117.66 81.1077C118.62 83.077 119.1 85.2308 119.04 87.4462C119.1 90.3385 118.26 93.2308 116.7 95.6308C115.02 98.0923 112.68 100 109.98 101.108C107.04 102.4 103.44 103.077 99.12 103.077C96.36 103.077 93.66 102.831 90.96 102.277C88.86 101.908 86.76 101.231 84.84 100.308C84.42 100.062 84.12 99.6308 84.18 99.1385V88.4308C84.18 88.2462 84.24 88 84.42 87.8769C84.6 87.7539 84.78 87.8154 84.96 87.9385C87.3 89.3539 89.76 90.3385 92.4 90.9539C94.68 91.5693 97.08 91.8769 99.48 91.8769C101.76 91.8769 103.38 91.5693 104.46 91.0154C105.42 90.5846 106.08 89.5385 106.08 88.4308C106.08 87.5693 105.6 86.7693 104.64 85.9693C103.68 85.1693 101.7 84.2462 98.76 83.077C95.7 81.9693 92.88 80.4923 90.24 78.6462C88.38 77.2923 86.82 75.5077 85.68 73.4154C84.72 71.4462 84.24 69.2923 84.3 67.1385C84.3 64.4923 85.02 61.9693 86.34 59.6923C87.84 57.2308 90.06 55.2616 92.64 54.0308C95.46 52.5539 99 51.877 103.26 51.877C105.72 51.877 108.24 52.0616 110.7 52.4308C112.5 52.6769 114.24 53.1693 115.86 53.8462C116.1 53.9077 116.34 54.1539 116.46 54.4C116.52 54.6462 116.58 54.8923 116.58 55.1385V65.1693C116.58 65.4154 116.46 65.6616 116.28 65.7846C115.74 65.9077 115.44 65.9077 115.2 65.7846Z" fill="#31A8FF"/>
</g>
<defs>
<clipPath id="clip0_1751_188254">
<rect width="144" height="144" fill="white"/>
</clipPath>
</defs>
</svg>
