<svg width="144" height="144" viewBox="0 0 144 144" fill="none" xmlns="http://www.w3.org/2000/svg">
<g clip-path="url(#clip0_1751_188234)">
<path d="M25.5 0H118.5C132.6 0 144 11.6923 144 26.1538V117.846C144 132.308 132.6 144 118.5 144H25.5C11.4 144 0 132.308 0 117.846V26.1538C0 11.6923 11.4 0 25.5 0Z" fill="#00005B"/>
<path d="M34.2 100.985V37.6616C34.2 37.2309 34.38 36.9847 34.8 36.9847C35.82 36.9847 36.78 36.9847 38.16 36.9232C39.6 36.8616 41.0999 36.8616 42.7199 36.8001C44.3399 36.7386 46.08 36.7386 47.94 36.677C49.8 36.6155 51.6 36.6155 53.4 36.6155C58.32 36.6155 62.4 37.2309 65.76 38.5232C68.76 39.5693 71.52 41.2924 73.8 43.5693C75.72 45.5386 77.22 47.9386 78.18 50.5847C79.08 53.1693 79.56 55.8155 79.56 58.5847C79.56 63.877 78.36 68.2462 75.96 71.6924C73.56 75.1386 70.2 77.7232 66.3 79.2001C62.22 80.7386 57.72 81.2924 52.8 81.2924C51.36 81.2924 50.4 81.2924 49.8 81.2309C49.2 81.1693 48.36 81.1693 47.2199 81.1693V100.923C47.28 101.354 46.98 101.723 46.56 101.785C46.5 101.785 46.4399 101.785 46.32 101.785H34.92C34.44 101.785 34.2 101.539 34.2 100.985ZM47.28 48.8616V69.5386C48.12 69.6001 48.9 69.6616 49.62 69.6616H52.8C55.14 69.6616 57.48 69.2924 59.7 68.5539C61.62 68.0001 63.2999 66.8309 64.62 65.2924C65.88 63.7539 66.48 61.6616 66.48 58.9539C66.54 57.0463 66.06 55.1386 65.1 53.477C64.08 51.877 62.64 50.6462 60.9 49.9693C58.68 49.0462 56.28 48.677 53.82 48.7386C52.26 48.7386 50.88 48.7386 49.74 48.8001C48.54 48.7386 47.7 48.8001 47.28 48.8616Z" fill="#9999FF"/>
<path d="M87.9599 52.4309H98.4599C99.0599 52.4309 99.5399 52.8617 99.7199 53.4156C99.8999 53.9079 100.02 54.4002 100.08 54.954C100.2 55.5694 100.32 56.2463 100.38 56.8617C100.44 57.5386 100.5 58.2771 100.5 59.0771C102.3 56.9233 104.46 55.1386 106.92 53.7848C109.68 52.1848 112.86 51.3848 116.04 51.3848C116.46 51.3233 116.82 51.6309 116.88 52.0617C116.88 52.1233 116.88 52.1848 116.88 52.3079V64.3079C116.88 64.8002 116.58 64.9848 115.92 64.9848C113.76 64.9233 111.54 65.1079 109.44 65.6002C107.7 65.9694 106.02 66.5233 104.4 67.2617C103.26 67.8156 102.18 68.554 101.34 69.5386V100.923C101.34 101.539 101.1 101.785 100.56 101.785H88.7399C88.2599 101.846 87.8399 101.539 87.7799 101.046C87.7799 100.985 87.7799 100.862 87.7799 100.8V66.7079C87.7799 65.2309 87.7799 63.6925 87.7199 62.0925C87.6599 60.4925 87.6599 58.8925 87.5999 57.2925C87.5999 55.8771 87.4799 54.5233 87.3599 53.1079C87.2999 52.8002 87.4799 52.4925 87.7799 52.4309C87.7799 52.3694 87.8999 52.3694 87.9599 52.4309Z" fill="#9999FF"/>
</g>
<defs>
<clipPath id="clip0_1751_188234">
<rect width="144" height="144" fill="white"/>
</clipPath>
</defs>
</svg>
