<svg width="144" height="144" viewBox="0 0 144 144" fill="none" xmlns="http://www.w3.org/2000/svg">
<path d="M136.714 35.9561L71.8621 0V35.9561L104.288 53.9341L136.714 35.9561Z" fill="#FF2121" fill-opacity="0.4"/>
<path d="M7.01001 35.9561L71.8623 0V35.9561L39.4361 53.9341L7.01001 35.9561Z" fill="#FF2121" fill-opacity="0.52"/>
<path d="M104.288 53.9341L71.8621 71.9121V35.9561L104.288 53.9341Z" fill="#FF2121" fill-opacity="0.77"/>
<path d="M39.436 53.9341L71.8622 71.9121V35.9561L39.436 53.9341Z" fill="#FF2121" fill-opacity="0.83"/>
<path d="M71.8621 107.868V71.9121L104.288 89.8901L71.8621 107.868Z" fill="#FF2121" fill-opacity="0.93"/>
<path d="M71.8622 107.868V71.9121L39.436 89.8901L71.8622 107.868Z" fill="#FF2121" fill-opacity="0.9"/>
<path d="M71.8523 143.819V107.858L39.4261 89.8804L7 107.858L71.8523 143.819Z" fill="#FF2121" fill-opacity="0.78"/>
<path d="M136.714 71.9121V107.868L104.288 89.8901L136.714 71.9121Z" fill="#FF2121" fill-opacity="0.63"/>
<path d="M7.00977 71.9121V107.868L39.4359 89.8901L7.00977 71.9121Z" fill="#FF2121" fill-opacity="0.63"/>
<path d="M136.705 71.9121L104.278 53.9341L71.8523 71.9121L104.278 89.8901L136.705 71.9121Z" fill="#FF2121" fill-opacity="0.86"/>
<path d="M7.00977 71.9121L39.4408 53.9438L71.8719 71.9121L39.4359 89.8804L7.00977 71.9121Z" fill="#FF2121" fill-opacity="0.86"/>
<path d="M136.714 35.9561V71.9121L104.288 53.9341L136.714 35.9561Z" fill="#FF2121" fill-opacity="0.63"/>
<path d="M7.01489 35.9561V71.9121L39.441 53.9341L7.01489 35.9561Z" fill="#FF2121" fill-opacity="0.63"/>
<path d="M71.8621 143.824V107.868L104.288 89.8901L136.714 107.868L71.8621 143.824Z" fill="#FF2121" fill-opacity="0.83"/>
</svg>
