<svg width="144" height="144" viewBox="0 0 144 144" fill="none" xmlns="http://www.w3.org/2000/svg">
<path fill-rule="evenodd" clip-rule="evenodd" d="M72.0014 29C52.7997 29 40.8018 38.543 35.9993 57.6291C43.2003 48.086 51.6005 44.5081 61.1999 46.8925C66.6768 48.2525 70.5934 52.2029 74.9247 56.5766C81.9846 63.6986 90.1562 71.9408 108.001 71.9408C127.2 71.9408 139.2 62.3977 144 43.3145C136.802 52.8575 128.402 56.4355 118.802 54.0483C113.322 52.6882 109.406 48.7379 105.075 44.367C98.0147 37.2394 89.8459 29 72.0014 29ZM35.9993 71.9408C16.8004 71.9408 4.79972 81.4838 0 100.57C7.20099 91.0268 15.6012 87.4489 25.1978 89.8332C30.6776 91.1933 34.5941 95.1437 38.9254 99.5173C45.9853 106.639 54.1541 114.882 72.0014 114.882C91.2003 114.882 103.201 105.341 108.001 86.2553C100.8 95.7983 92.3995 99.3762 82.8001 96.9919C77.3231 95.629 73.4066 91.6786 69.0753 87.3078C62.0154 80.1858 53.8437 71.9408 35.9993 71.9408Z" fill="#38BDF8"/>
</svg>
