<svg width="144" height="144" viewBox="0 0 144 144" fill="none" xmlns="http://www.w3.org/2000/svg">
<g clip-path="url(#clip0_1826_67337)">
<path d="M25.5 0H118.5C132.6 0 144 11.6923 144 26.1538V117.846C144 132.308 132.6 144 118.5 144H25.5C11.4 144 0 132.308 0 117.846V26.1538C0 11.6923 11.4 0 25.5 0Z" fill="#3178C6"/>
<path fill-rule="evenodd" clip-rule="evenodd" d="M89.9166 114.738V128.548C92.1541 129.698 94.8001 130.561 97.8551 131.136C100.91 131.712 104.13 132 107.515 132C110.813 132 113.947 131.684 116.916 131.051C119.885 130.418 122.488 129.375 124.726 127.922C126.963 126.468 128.734 124.57 130.04 122.225C131.344 119.88 131.997 116.982 131.997 113.529C131.997 111.026 131.624 108.833 130.878 106.948C130.132 105.064 129.057 103.388 127.651 101.92C126.246 100.453 124.56 99.1369 122.596 97.9717C120.631 96.8065 118.415 95.706 115.948 94.6703C114.141 93.9223 112.52 93.1958 111.086 92.4909C109.652 91.786 108.433 91.0668 107.429 90.3331C106.425 89.5994 105.65 88.8226 105.105 88.0027C104.56 87.1828 104.288 86.2549 104.288 85.2191C104.288 84.2697 104.531 83.4138 105.019 82.6514C105.507 81.889 106.195 81.2344 107.084 80.6878C107.974 80.1412 109.064 79.7168 110.354 79.4147C111.645 79.1126 113.079 78.9615 114.657 78.9615C115.805 78.9615 117.016 79.0479 118.293 79.2205C119.569 79.3931 120.853 79.6592 122.144 80.0189C123.435 80.3785 124.689 80.8316 125.909 81.3783C127.128 81.9249 128.253 82.5578 129.286 83.2771V70.3736C127.192 69.568 124.905 68.971 122.424 68.5826C119.942 68.1942 117.096 68 113.883 68C110.613 68 107.515 68.3524 104.589 69.0573C101.663 69.7622 99.0885 70.8627 96.8655 72.3587C94.6424 73.8548 92.8855 75.7608 91.5947 78.0768C90.3039 80.3929 89.6585 83.162 89.6585 86.3843C89.6585 90.4986 90.8417 94.0085 93.2082 96.9143C95.5747 99.8202 99.1674 102.28 103.986 104.294C105.88 105.071 107.644 105.833 109.279 106.581C110.914 107.329 112.326 108.106 113.517 108.912C114.707 109.717 115.646 110.595 116.335 111.544C117.024 112.494 117.368 113.572 117.368 114.781C117.368 115.673 117.153 116.5 116.723 117.262C116.292 118.024 115.64 118.686 114.765 119.247C113.89 119.808 112.8 120.248 111.495 120.564C110.189 120.88 108.662 121.038 106.912 121.038C103.929 121.038 100.975 120.513 98.0487 119.463C95.1229 118.413 92.4123 116.838 89.9166 114.738ZM66.7195 80.3613H84.7354V68.9846H34.52V80.3613H52.4478V131.015H66.7195V80.3613Z" fill="white"/>
</g>
<defs>
<clipPath id="clip0_1826_67337">
<rect width="144" height="144" fill="white"/>
</clipPath>
</defs>
</svg>
