<?xml version="1.0" standalone="no"?>
<!DOCTYPE svg PUBLIC "-//W3C//DTD SVG 20010904//EN"
 "http://www.w3.org/TR/2001/REC-SVG-20010904/DTD/svg10.dtd">
<svg version="1.0" xmlns="http://www.w3.org/2000/svg"
 width="700.000000pt" height="700.000000pt" viewBox="0 0 700.000000 700.000000"
 preserveAspectRatio="xMidYMid meet">
<metadata>
Created by potrace 1.14, written by Peter Selinger 2001-2017
</metadata>
<g transform="translate(0.000000,700.000000) scale(0.100000,-0.100000)"
fill="#000000" stroke="none">
<path d="M2705 6483 c-44 -7 -98 -19 -120 -25 -22 -6 -47 -13 -55 -14 -30 -6
-166 -65 -229 -101 -209 -116 -405 -315 -511 -520 -17 -35 -38 -63 -44 -63 -7
0 -41 -12 -77 -26 -305 -123 -526 -315 -716 -618 -63 -102 -140 -309 -175
-470 -29 -137 -31 -422 -4 -571 30 -168 117 -399 193 -517 17 -27 17 -28 -19
-80 -165 -240 -216 -567 -132 -856 61 -209 192 -398 364 -523 l57 -41 -10 -52
c-14 -77 -2 -269 22 -354 103 -358 410 -603 766 -611 25 -1 35 -9 59 -49 135
-216 359 -386 596 -452 108 -29 159 -35 305 -34 108 1 148 6 235 29 91 24 241
87 275 115 7 6 42 -6 99 -35 156 -78 301 -113 473 -112 280 0 540 106 737 301
62 62 147 168 178 225 13 23 24 31 45 31 121 2 291 60 403 139 64 45 185 177
226 248 44 74 91 191 100 252 3 20 9 54 13 76 9 47 5 181 -6 245 l-8 44 70 48
c90 60 157 125 229 218 58 74 143 234 152 285 3 16 9 35 13 44 5 9 11 32 15
51 3 19 9 46 12 60 13 52 12 276 -1 345 -30 152 -96 312 -170 410 -17 22 -34
45 -38 52 -4 7 8 43 27 80 73 144 135 337 151 472 4 30 9 63 11 75 7 29 7 294
1 331 -3 17 -11 64 -17 105 -24 152 -82 320 -162 470 -78 147 -154 249 -272
365 -61 60 -200 175 -211 175 -4 0 -26 14 -50 30 -45 31 -182 100 -235 118
-17 6 -33 19 -37 29 -20 52 -129 190 -225 284 -188 185 -436 315 -694 365 -95
19 -345 25 -444 11 -89 -12 -219 -47 -312 -84 l-87 -35 -88 35 c-173 69 -304
95 -476 95 -67 -1 -158 -7 -202 -15z m388 -507 c33 -9 81 -26 108 -37 l49 -21
0 -2413 0 -2413 -33 -20 c-152 -89 -357 -92 -517 -6 -30 16 -85 58 -121 95
-64 64 -96 118 -154 257 -49 116 -194 183 -302 141 -15 -6 -55 -13 -87 -14
-118 -7 -222 58 -278 173 -30 61 -33 74 -33 162 0 88 3 100 34 165 59 122 50
241 -23 318 -39 40 -64 54 -145 82 -159 54 -278 198 -307 370 -13 74 -8 176
11 230 6 18 13 36 29 75 31 73 137 189 230 253 210 143 508 199 731 138 140
-39 231 -24 303 50 51 52 67 95 67 179 -1 144 -69 212 -256 259 -175 44 -395
48 -579 11 -30 -6 -65 -13 -78 -16 -59 -12 -196 -61 -279 -99 l-91 -43 -32 72
c-54 120 -81 244 -86 391 -2 72 1 150 5 175 5 25 12 61 15 80 9 59 46 161 88
245 121 243 332 416 588 483 41 11 87 25 101 30 49 19 95 70 123 134 65 150
132 254 218 334 90 86 234 161 361 188 80 18 263 13 340 -8z m1202 -11 c152
-44 293 -131 396 -243 51 -56 129 -164 129 -179 0 -21 79 -125 110 -146 19
-13 67 -34 105 -47 406 -133 674 -507 689 -963 3 -84 -17 -234 -39 -298 -8
-22 -15 -43 -16 -47 -27 -125 -190 -377 -320 -496 -86 -78 -101 -90 -159 -128
-136 -89 -264 -133 -411 -142 -92 -6 -142 -23 -189 -64 -61 -51 -84 -103 -85
-187 0 -104 45 -179 139 -228 76 -39 297 -22 482 39 188 61 405 191 546 327
18 17 19 16 38 -27 79 -178 34 -412 -106 -551 -61 -61 -135 -102 -227 -126
-106 -28 -152 -64 -197 -153 -24 -47 -18 -162 10 -211 65 -114 79 -161 73
-241 -10 -138 -97 -253 -216 -285 -55 -15 -156 -5 -213 20 -87 39 -210 153
-256 238 -15 26 -29 72 -32 101 -11 107 -69 186 -162 221 -120 45 -252 -7
-309 -123 -24 -48 -26 -64 -24 -138 5 -134 46 -248 140 -384 55 -79 156 -183
239 -245 30 -22 56 -44 58 -49 4 -12 -102 -105 -153 -133 -166 -93 -361 -100
-524 -18 l-61 31 2 2427 3 2426 54 19 c135 45 335 47 486 3z"/>
<path d="M2645 5476 c-78 -37 -117 -88 -150 -196 -39 -127 -161 -227 -317
-259 -29 -6 -89 -13 -133 -16 -125 -8 -163 -22 -220 -79 -32 -32 -55 -66 -63
-92 -40 -136 24 -270 152 -319 39 -15 66 -17 169 -12 235 11 402 66 582 193
187 132 335 381 335 560 0 177 -194 296 -355 220z"/>
<path d="M1793 3114 c-107 -39 -176 -146 -168 -259 7 -99 67 -175 175 -222
381 -167 528 -357 569 -734 11 -98 26 -139 66 -187 160 -189 461 -55 440 196
-29 332 -112 563 -274 762 -138 169 -334 311 -575 414 -101 44 -172 53 -233
30z"/>
<path d="M4297 5238 c-50 -13 -131 -88 -152 -140 -24 -60 -21 -138 10 -243
103 -359 275 -603 518 -739 65 -37 214 -90 282 -101 68 -11 303 -14 343 -4 48
13 112 48 135 74 113 130 72 329 -83 398 -37 17 -65 20 -160 19 -130 -1 -211
15 -278 54 -126 74 -219 226 -283 461 -27 98 -38 119 -86 164 -66 63 -151 82
-246 57z"/>
</g>
</svg>
