<?xml version="1.0" standalone="no"?>
<!DOCTYPE svg PUBLIC "-//W3C//DTD SVG 20010904//EN"
 "http://www.w3.org/TR/2001/REC-SVG-20010904/DTD/svg10.dtd">
<svg version="1.0" xmlns="http://www.w3.org/2000/svg"
 width="700.000000pt" height="700.000000pt" viewBox="0 0 700.000000 700.000000"
 preserveAspectRatio="xMidYMid meet">
<metadata>
Created by potrace 1.14, written by Peter Selinger 2001-2017
</metadata>
<g transform="translate(0.000000,700.000000) scale(0.100000,-0.100000)"
fill="#000000" stroke="none">
<path d="M3185 6989 c-604 -53 -1219 -282 -1717 -638 -1246 -891 -1770 -2483
-1298 -3936 393 -1207 1424 -2116 2670 -2354 243 -46 344 -55 645 -55 306 -1
405 7 645 50 1418 259 2541 1372 2809 2786 54 283 74 652 52 934 -67 834 -423
1605 -1016 2199 -583 584 -1359 945 -2180 1015 -141 12 -468 11 -610 -1z m113
-1514 c34 -8 89 -26 123 -40 l60 -26 64 25 c110 45 190 59 325 60 185 0 325
-39 487 -136 72 -42 219 -186 268 -261 34 -51 48 -62 110 -91 293 -136 505
-417 564 -750 16 -87 13 -281 -4 -374 -18 -95 -42 -167 -85 -258 l-32 -66 32
-44 c207 -289 134 -730 -155 -929 l-56 -39 7 -80 c22 -289 -183 -555 -448
-583 -58 -6 -62 -8 -92 -52 -17 -25 -67 -83 -111 -127 -67 -67 -97 -89 -175
-127 -200 -97 -417 -98 -612 -4 l-66 32 -78 -37 c-198 -92 -416 -86 -617 19
-82 44 -190 141 -237 216 -27 43 -41 56 -60 57 -14 0 -56 7 -95 15 -266 56
-453 312 -431 592 3 45 3 83 -2 83 -14 0 -111 86 -151 134 -52 64 -107 177
-126 261 -20 85 -20 234 -1 316 18 80 38 128 83 202 l35 58 -36 68 c-198 377
-138 853 148 1158 110 117 249 211 377 252 27 9 40 22 57 57 77 158 263 320
445 389 147 55 332 66 485 30z"/>
<path d="M2993 5155 c-152 -33 -279 -140 -356 -298 -50 -103 -77 -131 -141
-147 -201 -52 -344 -168 -431 -352 -83 -174 -86 -396 -10 -567 l27 -59 72 34
c204 94 453 115 648 54 70 -21 99 -45 123 -102 27 -67 13 -131 -41 -182 -46
-42 -94 -51 -178 -30 -198 49 -426 -8 -568 -144 -83 -79 -120 -158 -120 -254
0 -160 81 -272 235 -324 55 -18 92 -59 107 -115 12 -43 10 -53 -26 -146 -52
-133 -12 -253 103 -310 52 -25 59 -26 112 -15 77 16 117 15 157 -4 42 -20 67
-53 94 -128 30 -80 111 -165 192 -202 52 -23 77 -28 143 -29 69 0 88 4 140 30
l60 30 3 1608 2 1608 -44 19 c-93 40 -196 48 -303 25z m106 -352 c33 -24 71
-98 71 -138 -1 -46 -43 -156 -85 -219 -111 -167 -292 -263 -517 -273 -116 -6
-119 -5 -159 21 -44 30 -78 91 -79 140 0 16 9 49 21 73 30 62 82 89 185 96
162 12 250 69 298 195 17 45 39 81 58 97 27 23 41 29 93 38 31 5 86 -10 114
-30z m-517 -1611 c309 -155 477 -401 495 -727 5 -93 4 -102 -18 -134 -35 -51
-72 -73 -127 -79 -60 -5 -112 17 -148 64 -19 25 -28 55 -39 131 -24 174 -60
249 -160 341 -43 40 -98 75 -168 110 -61 29 -115 64 -130 82 -66 78 -38 206
55 254 56 28 121 17 240 -42z"/>
<path d="M3752 5155 c-35 -8 -70 -19 -78 -26 -12 -10 -14 -247 -12 -1623 l3
-1611 60 -30 c53 -26 70 -30 145 -30 74 0 93 4 150 31 36 17 83 48 105 68 l40
36 -40 32 c-87 69 -163 158 -205 243 -37 73 -44 95 -48 163 -5 90 8 126 61
166 100 77 229 22 260 -109 8 -33 21 -74 30 -91 21 -40 104 -117 156 -144 53
-26 143 -30 188 -7 70 37 121 136 110 216 -2 21 -19 67 -36 102 -36 74 -39
117 -11 173 26 52 48 68 136 94 175 53 272 236 220 415 -9 31 -20 57 -25 57
-4 0 -36 -23 -71 -51 -156 -125 -334 -198 -505 -206 -93 -5 -102 -3 -134 18
-77 54 -102 139 -62 216 29 59 74 82 173 93 104 11 179 38 272 101 156 104
285 285 331 464 20 78 20 250 -1 334 -27 111 -88 223 -169 309 -82 87 -148
130 -260 172 -93 35 -107 46 -148 124 -45 87 -173 213 -259 254 -120 59 -249
74 -376 47z m408 -510 c43 -22 68 -60 91 -138 57 -192 129 -289 242 -326 20
-7 74 -12 119 -12 147 1 213 -50 213 -166 0 -66 -16 -98 -69 -137 -37 -28
-219 -35 -318 -12 -158 37 -301 145 -392 296 -57 94 -125 284 -126 350 0 64
40 125 100 152 28 12 111 8 140 -7z"/>
</g>
</svg>
