<svg width="28" height="28" viewBox="0 0 28 28" fill="none" xmlns="http://www.w3.org/2000/svg">
<path d="M25.6014 11.593L25.5677 11.5068L22.301 2.98132C22.2345 2.81422 22.1168 2.67248 21.9648 2.57641C21.8127 2.48199 21.6353 2.43651 21.4565 2.44611C21.2777 2.45572 21.1062 2.51996 20.9651 2.63015C20.8255 2.74351 20.7243 2.8971 20.6751 3.07005L18.4694 9.81843H9.53779L7.33207 3.07005C7.28423 2.89616 7.18278 2.74179 7.04214 2.6289C6.90102 2.51871 6.72949 2.45447 6.5507 2.44486C6.37192 2.43526 6.19449 2.48074 6.04238 2.57516C5.8907 2.67161 5.77311 2.81324 5.70621 2.98007L2.43324 11.5018L2.40075 11.588C1.93049 12.8167 1.87244 14.165 2.23536 15.4296C2.59828 16.6942 3.36249 17.8065 4.41277 18.5988L4.42401 18.6076L4.45401 18.6288L9.43031 22.3554L11.8922 24.2187L13.3919 25.351C13.5673 25.4841 13.7815 25.5562 14.0017 25.5562C14.222 25.5562 14.4362 25.4841 14.6116 25.351L16.1112 24.2187L18.5731 22.3554L23.5794 18.6063L23.5919 18.5963C24.6398 17.8038 25.4023 16.6927 25.7646 15.4298C26.127 14.1669 26.0697 12.8205 25.6014 11.593Z" fill="#3D3BFF"/>
</svg>
