<svg width="28" height="28" viewBox="0 0 28 28" fill="none" xmlns="http://www.w3.org/2000/svg">
<path d="M25 13.459C25 8.52859 25 6.06338 23.4684 4.53168C21.9366 3 19.4714 3 14.541 3H13.459C8.52859 3 6.06338 3 4.53168 4.53168C3 6.06338 3 8.52859 3 13.459V14.541C3 19.4714 3 21.9366 4.53168 23.4684C6.06338 25 8.52859 25 13.459 25H14.541C19.4714 25 21.9366 25 23.4684 23.4684C25 21.9366 25 19.4714 25 14.541V13.459Z" fill="#0077FF"/>
<path d="M20.5951 3.23828C20.2613 3.87061 19.8964 4.62843 19.4701 5.51397L14.7944 15.2262C13.4304 18.0594 12.7484 19.476 13.3953 20.5053C14.0422 21.5348 15.6144 21.5348 18.7589 21.5348H24.5547C24.9987 19.9872 24.9987 17.804 24.9987 14.5408V13.4588C24.9987 8.5284 24.9987 6.06317 23.4671 4.53149C22.7594 3.82381 21.8524 3.44309 20.5951 3.23828Z" fill="#00D9ED"/>
<path d="M16.7757 11.1107L14.7945 15.2261C13.9215 17.0395 13.3278 18.2726 13.1833 19.1952C10.9099 19.1823 9.7035 19.0825 9.12931 18.3136C9.02581 18.175 8.93901 18.0246 8.87072 17.8656C8.43537 16.8523 9.18282 15.5577 10.6777 12.9684C12.1726 10.3792 12.9201 9.08458 14.0153 8.95494C14.1871 8.93462 14.3607 8.93462 14.5325 8.95494C15.3241 9.04864 15.934 9.75091 16.7757 11.1107Z" fill="white"/>
</svg>
