<svg width="28" height="28" viewBox="0 0 28 28" fill="none" xmlns="http://www.w3.org/2000/svg">
<path fill-rule="evenodd" clip-rule="evenodd" d="M5.99968 12.9834L4.99501 12.1263L7.00436 12.9834H5.99968ZM9.63341 13.5234H5.81324L2 10.2663L9.63341 13.5234Z" fill="#3D3BFF"/>
<path fill-rule="evenodd" clip-rule="evenodd" d="M5.64063 14.0636L6.6453 14.9207L4.63596 14.0636H5.64063ZM5.81324 13.5234L9.62822 16.7807L2 13.5236L5.81324 13.5234Z" fill="#3D3BFF"/>
<path fill-rule="evenodd" clip-rule="evenodd" d="M2.00498 25.3142L5.81306 22.057H9.62804L2.00498 25.3142ZM4.99483 23.4541L5.99948 22.597H7.00415L4.99483 23.4541Z" fill="#3D3BFF"/>
<path fill-rule="evenodd" clip-rule="evenodd" d="M5.64042 21.5174H4.63576L6.6451 20.6603L5.64042 21.5174ZM5.81306 22.057L2.00498 22.0575L9.6332 18.8003L5.81306 22.057Z" fill="#3D3BFF"/>
<path fill-rule="evenodd" clip-rule="evenodd" d="M20.9939 12.9988L23.0033 12.1417L21.9986 12.9988H20.9939ZM26 10.2663L22.1798 13.5423H18.3649L26 10.2663Z" fill="#3D3BFF"/>
<path fill-rule="evenodd" clip-rule="evenodd" d="M23.364 14.0858L21.3547 14.9429L22.3594 14.0858H23.364ZM25.9931 13.5424L18.3649 16.8201L22.1781 13.5424H25.9931Z" fill="#3D3BFF"/>
<path fill-rule="evenodd" clip-rule="evenodd" d="M18.3649 22.1289H22.1798L25.9931 25.4049L18.3649 22.1289ZM20.9939 22.6724H21.9986L23.0033 23.5295L20.9939 22.6724Z" fill="#3D3BFF"/>
<path fill-rule="evenodd" clip-rule="evenodd" d="M21.3495 20.722L23.3589 21.5791H22.3542L21.3495 20.722ZM18.3649 18.8517L25.9931 22.1294H22.1781L18.3649 18.8517Z" fill="#3D3BFF"/>
<path d="M21.6239 2L17.8089 3.39029L13.9991 2L10.1772 3.39029L6.35881 2L2.00526 3.59771V9.18971L6.35881 10.7583L10.1772 9.38687L12.4075 10.1857L9.63348 11.192V16.7823L12.4317 17.7886L9.65248 18.8V24.3903L13.9991 26L18.3561 24.4383V18.8463L15.5579 17.8314L18.3561 16.8303V11.2383L15.5579 10.2286L17.7899 9.42971L21.6032 10.8011L25.993 9.18801V3.59771L21.6239 2ZM13.7868 18.308L13.9991 18.3749L14.7708 18.0954L17.8124 19.2029L13.9991 20.5966L10.1807 19.2097L13.1999 18.1006L13.7868 18.308ZM17.1581 11.3463L17.8003 11.5811L14.0026 12.9714L10.1807 11.5863L13.2033 10.4789L13.9698 10.7549L14.738 10.4754L17.1581 11.3463ZM21.6239 5.35486L17.8089 3.96114L13.9991 5.34628L10.1772 3.96114L6.35881 5.34628L2.54384 3.96114L6.35881 2.57429L10.1772 3.96114L13.9991 2.57429L17.8176 3.96114L21.6308 2.57429L25.4492 3.96114L21.6239 5.35486Z" fill="#3D3BFF"/>
<path fill-rule="evenodd" clip-rule="evenodd" d="M5.99968 12.9834L4.99501 12.1263L7.00436 12.9834H5.99968ZM9.63341 13.5234H5.81324L2 10.2663L9.63341 13.5234Z" fill="#3D3BFF"/>
<path fill-rule="evenodd" clip-rule="evenodd" d="M5.64063 14.0636L6.6453 14.9207L4.63596 14.0636H5.64063ZM5.81324 13.5234L9.62822 16.7807L2 13.5236L5.81324 13.5234Z" fill="#3D3BFF"/>
<path fill-rule="evenodd" clip-rule="evenodd" d="M2.00498 25.3142L5.81306 22.057H9.62804L2.00498 25.3142ZM4.99483 23.4541L5.99948 22.597H7.00415L4.99483 23.4541Z" fill="#3D3BFF"/>
<path fill-rule="evenodd" clip-rule="evenodd" d="M5.64042 21.5174H4.63576L6.6451 20.6603L5.64042 21.5174ZM5.81306 22.057L2.00498 22.0575L9.6332 18.8003L5.81306 22.057Z" fill="#3D3BFF"/>
<path fill-rule="evenodd" clip-rule="evenodd" d="M20.9939 12.9988L23.0033 12.1417L21.9986 12.9988H20.9939ZM26 10.2663L22.1798 13.5423H18.3649L26 10.2663Z" fill="#3D3BFF"/>
<path fill-rule="evenodd" clip-rule="evenodd" d="M23.364 14.0858L21.3547 14.9429L22.3594 14.0858H23.364ZM25.9931 13.5424L18.3649 16.8201L22.1781 13.5424H25.9931Z" fill="#3D3BFF"/>
<path fill-rule="evenodd" clip-rule="evenodd" d="M18.3649 22.1289H22.1798L25.9931 25.4049L18.3649 22.1289ZM20.9939 22.6724H21.9986L23.0033 23.5295L20.9939 22.6724Z" fill="#3D3BFF"/>
<path fill-rule="evenodd" clip-rule="evenodd" d="M21.3495 20.722L23.3589 21.5791H22.3542L21.3495 20.722ZM18.3649 18.8517L25.9931 22.1294H22.1781L18.3649 18.8517Z" fill="#3D3BFF"/>
</svg>
