<svg width="28" height="28" viewBox="0 0 28 28" fill="none" xmlns="http://www.w3.org/2000/svg">
<path d="M14 25.9999C20.6274 25.9999 26 20.6273 26 13.9999C26 7.37256 20.6274 2 14 2C7.37258 2 2 7.37256 2 13.9999C2 20.6273 7.37258 25.9999 14 25.9999Z" fill="#FC3F1D"/>
<path d="M18.3422 21.533H15.7079V8.5043H14.5344C12.3834 8.5043 11.2566 9.57982 11.2566 11.1853C11.2566 13.0068 12.0338 13.8507 13.6415 14.9262L14.9664 15.8192L11.1587 21.5308H8.32623L11.7532 16.4315C9.78253 15.0242 8.67361 13.6503 8.67361 11.3323C8.67361 8.43527 10.6933 6.4646 14.5166 6.4646H18.3244V21.5286H18.3422V21.533Z" fill="white"/>
</svg>
