<svg width="28" height="28" viewBox="0 0 28 28" fill="none" xmlns="http://www.w3.org/2000/svg">
<path d="M25.6005 11.5907L25.5668 11.5045L22.3002 2.97934C22.2337 2.81225 22.116 2.67051 21.964 2.57446C21.8119 2.48003 21.6345 2.43455 21.4557 2.44416C21.2769 2.45377 21.1054 2.51801 20.9643 2.62819C20.8248 2.74154 20.7235 2.89513 20.6744 3.06807L18.4688 9.81619H9.53749L7.33186 3.06807C7.28402 2.89419 7.18257 2.73983 7.04194 2.62694C6.90083 2.51676 6.7293 2.45252 6.55053 2.44291C6.37175 2.4333 6.19433 2.47878 6.04222 2.57321C5.89054 2.66965 5.77297 2.81127 5.70606 2.97809L2.43322 11.4995L2.40073 11.5857C1.93049 12.8144 1.87245 14.1626 2.23535 15.4271C2.59826 16.6917 3.36244 17.8039 4.41267 18.5962L4.42392 18.605L4.45391 18.6262L9.43002 22.3527L11.8918 24.2159L13.3914 25.3481C13.5668 25.4813 13.781 25.5534 14.0012 25.5534C14.2215 25.5534 14.4357 25.4813 14.6111 25.3481L16.1107 24.2159L18.5725 22.3527L23.5786 18.6037L23.5911 18.5937C24.639 17.8013 25.4014 16.6902 25.7637 15.4273C26.1261 14.1645 26.0688 12.8182 25.6005 11.5907Z" fill="#E24329"/>
<path d="M25.6005 11.5906L25.5668 11.5044C23.9751 11.8311 22.4752 12.5053 21.1743 13.4788L14 18.9036C16.4431 20.7518 18.57 22.3576 18.57 22.3576L23.5761 18.6087L23.5886 18.5987C24.638 17.8062 25.4015 16.6944 25.7644 15.4305C26.1272 14.1666 26.0697 12.819 25.6005 11.5906Z" fill="#FC6D26"/>
<path d="M9.43005 22.3576L11.8919 24.2208L13.3915 25.353C13.5669 25.4862 13.781 25.5583 14.0013 25.5583C14.2215 25.5583 14.4357 25.4862 14.6111 25.353L16.1107 24.2208L18.5725 22.3576C18.5725 22.3576 16.4431 20.7468 14 18.9036C11.557 20.7468 9.43005 22.3576 9.43005 22.3576Z" fill="#FCA326"/>
<path d="M6.8245 13.4787C5.5246 12.5032 4.02503 11.8272 2.43322 11.4993L2.40073 11.5855C1.93049 12.8142 1.87245 14.1624 2.23535 15.4269C2.59826 16.6915 3.36244 17.8037 4.41267 18.596L4.42392 18.6048L4.45391 18.626L9.43002 22.3525C9.43002 22.3525 11.5544 20.7467 14 18.8985L6.8245 13.4787Z" fill="#FC6D26"/>
</svg>
