<svg width="28" height="28" viewBox="0 0 28 28" fill="none" xmlns="http://www.w3.org/2000/svg">
<path fill-rule="evenodd" clip-rule="evenodd" d="M26 14C26 20.6274 20.6274 26 14 26C7.37258 26 2 20.6274 2 14C2 7.37258 7.37258 2 14 2C20.6274 2 26 7.37258 26 14ZM14.43 10.8589C13.2628 11.3443 10.9301 12.3491 7.43184 13.8733C6.86378 14.0992 6.5662 14.3202 6.53911 14.5363C6.49333 14.9014 6.95066 15.0453 7.57341 15.2411C7.65813 15.2677 7.7459 15.2953 7.83588 15.3246C8.44858 15.5237 9.27277 15.7567 9.70123 15.766C10.0899 15.7744 10.5237 15.6142 11.0026 15.2853C14.2711 13.079 15.9583 11.9638 16.0643 11.9397C16.139 11.9228 16.2425 11.9014 16.3127 11.9638C16.3829 12.0262 16.376 12.1443 16.3685 12.176C16.3232 12.3691 14.5281 14.0381 13.5991 14.9017C13.3094 15.171 13.104 15.362 13.062 15.4056C12.9679 15.5033 12.8721 15.5957 12.7799 15.6846C12.2107 16.2333 11.7839 16.6448 12.8036 17.3167C13.2936 17.6397 13.6857 17.9067 14.0769 18.1731C14.5041 18.464 14.9302 18.7542 15.4816 19.1156C15.622 19.2077 15.7562 19.3033 15.8868 19.3965C16.384 19.7509 16.8307 20.0694 17.3825 20.0186C17.7032 19.9891 18.0344 19.6876 18.2026 18.7883C18.6002 16.6631 19.3816 12.0584 19.5622 10.1609C19.578 9.99468 19.5581 9.78192 19.5421 9.68852C19.5261 9.59512 19.4927 9.46205 19.3713 9.36354C19.2275 9.24688 19.0056 9.22228 18.9063 9.22403C18.455 9.23198 17.7625 9.47276 14.43 10.8589Z" fill="#3D3BFF"/>
</svg>
