<svg width="28" height="28" viewBox="0 0 28 28" fill="none" xmlns="http://www.w3.org/2000/svg">
<path d="M17.9162 21.5362C16.8832 22.1574 15.6933 22.4682 14.4884 22.4317C13.155 22.4621 11.847 22.0642 10.7565 21.2962C9.69837 20.5224 8.95936 19.3888 8.67838 18.1084L4.73645 18.704C4.94409 20.1103 5.51242 21.4388 6.38606 22.5602C7.26553 23.6713 8.41246 24.541 9.71956 25.0882C11.1623 25.6995 12.7159 26.0059 14.2828 25.988C15.8167 26.0039 17.3394 25.7261 18.7689 25.1696C20.0697 24.6741 21.2064 23.8253 22.0509 22.7187C22.7795 21.7441 23.2016 20.5748 23.2635 19.3595H19.3259C19.2854 19.8096 19.1359 20.243 18.8903 20.6222C18.6447 21.0015 18.3103 21.3152 17.9162 21.5362Z" fill="#E83A50"/>
<path d="M22.3037 15.4175C21.7154 14.6242 20.9416 13.9871 20.05 13.5622C19.1079 13.1338 18.1319 12.7841 17.1321 12.5168L13.0016 11.3342C12.13 11.1404 11.2962 10.8046 10.5337 10.3401C10.2342 10.1494 9.99043 9.88292 9.82714 9.56763C9.66386 9.25235 9.58683 8.8995 9.60387 8.54485C9.6018 7.95901 9.81882 7.39355 10.2123 6.95951C10.6549 6.47755 11.212 6.11502 11.8319 5.90547C12.5246 5.65433 13.2594 5.53939 13.9957 5.56698C15.1709 5.56814 16.3149 5.94497 17.2606 6.64244C18.1886 7.31896 18.8292 8.31884 19.0559 9.44464L23.1221 8.77194C22.8292 7.43719 22.2325 6.18796 21.3782 5.12137C20.5493 4.1111 19.4816 3.32327 18.2718 2.82905C16.9346 2.28255 15.5046 1.99887 14.06 1.99354C12.5869 1.94988 11.1203 2.20646 9.74955 2.74764C8.55339 3.21954 7.51405 4.01834 6.75026 5.05282C5.99109 6.12249 5.59874 7.40925 5.63195 8.72052C5.63195 10.4944 6.12327 11.8141 7.10589 12.6796C8.16297 13.5844 9.41321 14.2352 10.7607 14.582L16.7336 16.3473C17.4679 16.5389 18.1444 16.9066 18.7046 17.4185C18.8252 17.5497 18.9314 17.6933 19.0217 17.8469H23.225C23.1431 16.9688 22.8247 16.1292 22.3037 15.4175Z" fill="#E83A50"/>
</svg>
