<svg width="28" height="28" viewBox="0 0 28 28" fill="none" xmlns="http://www.w3.org/2000/svg">
<path d="M9.65063 11.1868L6.09381 9.88569L2.00692 11.3823L3.01871 12.8C3.10728 12.9337 3.2426 13.0302 3.39857 13.0708L3.45555 13.0811L6.19741 12.4571C6.28791 12.4353 6.38266 12.4381 6.47168 12.4653C6.56073 12.4924 6.64074 12.5429 6.70329 12.6114L7.81178 13.8114C7.86606 13.8678 7.90112 13.9398 7.91193 14.0171C7.90077 14.0943 7.86578 14.1662 7.81178 14.2228L6.70329 15.4228C6.64091 15.4916 6.56099 15.5424 6.47194 15.5699C6.38292 15.5973 6.28805 15.6004 6.19741 15.5788L3.45727 14.9428L3.40202 14.9531C3.24124 14.9953 3.1021 15.0956 3.0118 15.2342L2.00864 16.6417L6.00576 18.1091L6.09552 18.0748L6.18531 18.1091L9.69898 16.82L10.1824 16.6485V11.384L9.65063 11.1868ZM9.63335 16.2405L6.21985 17.4936L6.10071 17.5382L5.98157 17.4936L2.88404 16.3571L3.45555 15.5428C3.46698 15.5269 3.47968 15.5121 3.49353 15.4982L6.06962 16.0965C6.25531 16.1378 6.44867 16.1301 6.63042 16.0742C6.81216 16.0182 6.976 15.916 7.10561 15.7777L8.21926 14.5777L8.24516 14.5485C8.38638 14.4 8.46505 14.2034 8.46505 13.9991C8.46505 13.7948 8.38638 13.5983 8.24516 13.4497L7.11422 12.2274C6.98487 12.0888 6.82101 11.9865 6.63912 11.9308C6.45722 11.8751 6.26378 11.868 6.07827 11.9103L3.50044 12.5068C3.48947 12.4964 3.47963 12.485 3.47108 12.4725L2.88577 11.6514L6.09381 10.4771L6.61179 10.6691L9.62645 11.7714L9.63335 16.2405Z" fill="#3D3BFF"/>
<path d="M9.65062 18.7996L6.20603 17.4898L6.08689 17.5344L5.96775 17.4898L2 18.9984L3.01179 20.4744C3.09854 20.6116 3.23416 20.7114 3.39165 20.7538L3.44862 20.7658L6.19739 20.1092C6.28852 20.0883 6.38365 20.0922 6.47272 20.1205C6.5618 20.1489 6.64147 20.2007 6.70328 20.2704L7.81177 21.5098C7.84303 21.536 7.86816 21.5687 7.88539 21.6056C7.90261 21.6424 7.91154 21.6826 7.91154 21.7232C7.91154 21.7639 7.90261 21.804 7.88539 21.8409C7.86816 21.8777 7.84303 21.9104 7.81177 21.9367L6.70328 23.1778C6.64147 23.2475 6.5618 23.2993 6.47272 23.3277C6.38365 23.356 6.28852 23.3599 6.19739 23.3389L3.45726 22.6807L3.40201 22.691C3.23977 22.7352 3.10037 22.8386 3.01179 22.9807L2.00863 24.4412L6.0938 25.9995L9.99595 24.5166L10.1876 24.4429V19.0018L9.65062 18.7996ZM9.61953 24.0384L6.08689 25.3858L2.87021 24.1601L3.44862 23.3201C3.45965 23.3034 3.47238 23.2879 3.48661 23.2738L6.06271 23.8944C6.24939 23.9372 6.44426 23.929 6.62664 23.8707C6.80901 23.8125 6.97211 23.7063 7.09866 23.5635L8.21234 22.3155L8.23824 22.2847C8.37048 22.1252 8.44629 21.927 8.45408 21.7207C8.44506 21.5094 8.36617 21.3069 8.2296 21.1447L7.09866 19.8778C6.97222 19.7349 6.80913 19.6286 6.62672 19.5703C6.44429 19.5121 6.24939 19.504 6.06271 19.547L3.49179 20.171C3.48085 20.1599 3.47102 20.1479 3.46244 20.1349L2.87711 19.2778L6.00401 18.0881L6.0938 18.0538L6.18359 18.0881L9.62643 19.3978L9.61953 24.0384Z" fill="#3D3BFF"/>
<path d="M24.6066 14.9377L24.5514 14.9274L21.8112 15.5634C21.7206 15.585 21.6257 15.5819 21.5367 15.5544C21.4476 15.527 21.3677 15.4762 21.3053 15.4074L20.1969 14.2074C20.1429 14.1507 20.1079 14.0789 20.0967 14.0017C20.1075 13.9244 20.1426 13.8524 20.1969 13.796L21.3053 12.596C21.3679 12.5275 21.4479 12.477 21.5369 12.4498C21.626 12.4227 21.7207 12.4199 21.8112 12.4417L24.5514 13.076L24.6084 13.0657C24.7643 13.0251 24.8996 12.9286 24.9882 12.7948L26 11.3737L23.0078 10.2783L22.9784 10.268L21.9097 9.88569L20.5767 10.3743L20.499 10.4017L18.3597 11.1851L18.289 11.2108L17.8228 11.3823V16.6262L18.3062 16.7977L18.3597 16.8165L21.8199 18.0868L21.9097 18.0525L21.9995 18.0868L25.9966 16.6194L24.9934 15.212C24.9027 15.0766 24.765 14.9789 24.6066 14.9377ZM22.0323 17.4936L21.9131 17.5382L21.794 17.4936L18.3805 16.2405V11.7714L21.3157 10.6983L21.3934 10.6691L21.9114 10.4771L22.1686 10.5714L22.2049 10.5851L25.1281 11.6566L24.5427 12.4777C24.5342 12.4901 24.5244 12.5016 24.5134 12.512L21.9356 11.9154C21.75 11.8732 21.5566 11.8803 21.3747 11.936C21.1928 11.9916 21.029 12.0939 20.8996 12.2325L19.7687 13.4548C19.6263 13.6023 19.5461 13.7983 19.5445 14.0026C19.5429 14.2068 19.62 14.404 19.76 14.5537L19.7859 14.5828L20.8996 15.7828C21.0292 15.9212 21.193 16.0234 21.3748 16.0793C21.5565 16.1353 21.7499 16.143 21.9356 16.1017L24.5117 15.5034C24.5255 15.5172 24.5382 15.5321 24.5496 15.548L25.1281 16.3571L22.0323 17.4936Z" fill="#3D3BFF"/>
<path d="M24.6065 22.6914L24.5512 22.6811L21.8111 23.3394C21.7199 23.3604 21.6248 23.3565 21.5357 23.3281C21.4467 23.2998 21.367 23.248 21.3052 23.1783L20.1967 21.9371C20.1654 21.9109 20.1403 21.8782 20.1231 21.8414C20.1058 21.8045 20.0969 21.7644 20.0969 21.7237C20.0969 21.6831 20.1058 21.6429 20.1231 21.6061C20.1403 21.5692 20.1654 21.5365 20.1967 21.5103L21.3052 20.2709C21.367 20.2012 21.4467 20.1494 21.5357 20.121C21.6248 20.0926 21.7199 20.0887 21.8111 20.1097L24.5512 20.7697L24.6082 20.7577C24.7657 20.7153 24.9013 20.6155 24.988 20.4783L25.9998 19.0023L22.8194 17.7937L22.0323 17.4936L21.9131 17.5382L21.794 17.4936L21.0065 17.7937L18.3492 18.8L18.2992 18.8189L17.8278 18.9989V24.44L18.0194 24.5137L18.0782 24.536L21.9095 26L25.9964 24.4417L24.9932 22.9811C24.9055 22.8398 24.7674 22.7364 24.6065 22.6914ZM21.9095 25.3897L18.3769 24.0423V19.4034L21.8197 18.0937L21.9095 18.0595L21.9993 18.0937L25.1262 19.2834L24.5409 20.1406C24.5323 20.1535 24.5224 20.1656 24.5115 20.1766L21.9337 19.556C21.747 19.5131 21.5521 19.5211 21.3697 19.5794C21.1873 19.6376 21.0242 19.7439 20.8977 19.8869L19.7668 21.1537C19.6302 21.316 19.5513 21.5184 19.5423 21.7297C19.5501 21.9361 19.6259 22.1343 19.7581 22.2937L19.784 22.3246L20.8977 23.5726C21.0243 23.7154 21.1874 23.8215 21.3697 23.8798C21.5521 23.938 21.747 23.9462 21.9337 23.9034L24.5098 23.2828C24.524 23.2969 24.5367 23.3125 24.5478 23.3291L25.1262 24.1691L21.9095 25.3897Z" fill="#3D3BFF"/>
<path d="M21.6298 2L17.814 3.39028L14.0034 2L10.1807 3.39028L6.37006 2L2.00692 3.59771V9.18967L5.83653 10.5697L6.09381 10.4754L6.61179 10.6674L10.1859 9.3851L12.4132 10.184L9.65063 11.1868L9.65063 16.7822L9.71104 16.8045L12.4495 17.7885L9.65062 18.7996L9.65063 24.3902L9.98213 24.5136L14.0034 25.9999L18.0765 24.5393L18.3614 24.4382V18.8462L18.2975 18.8222L15.5625 17.8314L18.3631 16.8302V11.2382L18.2923 11.2125L15.5625 10.2285L17.795 9.42967L20.5024 10.3999L21.3139 10.6931L21.3916 10.6639L21.9095 10.472L22.1668 10.5662L22.2031 10.5799L25.9964 9.18624V3.59771L21.6298 2ZM17.8192 19.2028L14.0034 20.5965L10.1842 19.2096L13.204 18.1005L13.791 18.3079L14.0034 18.3748L14.7752 18.0953L17.8192 19.2028ZM17.1631 11.3462L17.8071 11.5811L14.0086 12.9714L10.1859 11.5862L13.2092 10.4788L13.9671 10.7548L14.7338 10.4754L17.1631 11.3462ZM21.6298 5.35484L17.814 3.96113L14.0034 5.34626L10.1807 3.96113L6.37006 5.34626L2.55598 3.96113L6.37006 2.57428L10.1893 3.96113L14.012 2.57428L17.8313 3.96113L21.6471 2.57428L25.4647 3.96113L21.6298 5.35484Z" fill="#3D3BFF"/>
</svg>
