<svg width="28" height="28" viewBox="0 0 28 28" fill="none" xmlns="http://www.w3.org/2000/svg">
<path fill-rule="evenodd" clip-rule="evenodd" d="M3 13.56C3 13.2311 3 12.9131 3.00045 12.6056C3.00675 8.25722 3.10216 5.99079 4.54648 4.54648C6.09295 3 8.58197 3 13.56 3H14.44C19.418 3 21.907 3 23.4535 4.54648C24.8648 5.9578 24.9882 8.15411 24.999 12.3108C24.999 12.3175 24.999 12.3241 24.999 12.3308C24.9999 12.6871 25 13.0579 25 13.4438C25 13.4824 25 13.5211 25 13.56V14.44C25 15.1081 25 15.7313 24.9963 16.3134C24.9948 16.5446 24.9927 16.7694 24.9898 16.9878C24.9456 20.3183 24.71 22.197 23.4535 23.4535C21.907 25 19.418 25 14.44 25H13.56C8.58197 25 6.09295 25 4.54648 23.4535C3.15423 22.0613 3.01538 19.9051 3.00153 15.8567C3.0015 15.8473 3.00147 15.838 3.00144 15.8286C3.00142 15.8218 3.0014 15.8149 3.00137 15.808C3.00112 15.7267 3.00091 15.6447 3.00074 15.5619C3 15.2026 3 14.8289 3 14.44V13.56ZM13.56 3.66H14.44C16.9477 3.66 18.762 3.6614 20.1457 3.84742C21.5103 4.03089 22.3567 4.383 22.9868 5.01317C23.617 5.64334 23.9691 6.48972 24.1526 7.85435C24.2606 8.65772 24.3064 9.6063 24.3257 10.7515C24.2574 10.6651 24.1838 10.5825 24.1047 10.5034C22.9793 9.37678 21.166 9.37678 17.5392 9.37678H10.5066C6.87984 9.37678 5.07709 9.37889 3.94957 10.5076C3.84861 10.6086 3.75669 10.7152 3.673 10.8281C3.69164 9.64852 3.73701 8.67556 3.84742 7.85435C4.03089 6.48972 4.383 5.64334 5.01317 5.01317C5.64334 4.383 6.48972 4.03089 7.85435 3.84742C9.23797 3.6614 11.0523 3.66 13.56 3.66ZM3.66481 16.4519C3.66012 15.8352 3.66 15.1667 3.66 14.44V14.219C5.52551 14.6074 7.22872 15.1858 8.69954 15.8046C10.1943 16.4418 11.6369 17.1952 13.0143 18.0577C13.3709 18.2804 13.6743 18.4817 13.9189 18.6494C14.1247 18.4925 14.3762 18.3089 14.6705 18.1066C15.9185 17.2569 17.2446 16.5281 18.6306 15.93C20.4703 15.1351 22.3866 14.5613 24.34 14.2133V14.44C24.34 15.1593 24.3399 15.8215 24.3353 16.4329C22.6762 16.7574 21.0487 17.2605 19.4821 17.9387C18.2251 18.4808 17.0227 19.1421 15.8914 19.9134C15.5602 20.1408 15.3012 20.3399 15.1017 20.4932C15.057 20.5275 15.0151 20.5597 14.9763 20.5893L14.7639 20.7721L14.713 20.8167L14.0271 21.4246L13.3058 20.8588L13.2988 20.8678H13.2839L13.2181 20.8189L12.9421 20.6063C12.7021 20.432 12.3263 20.1812 11.8528 19.8857C10.5762 19.0918 9.23933 18.3996 7.85445 17.8154C6.60065 17.2877 5.18871 16.8013 3.66481 16.4519Z" fill="#3D3BFF"/>
</svg>
