<svg width="28" height="28" viewBox="0 0 28 28" fill="none" xmlns="http://www.w3.org/2000/svg">
<path d="M18.0572 11.4376L14.0431 9.97144L10.0286 11.4376L10.029 16.5629L14.0431 18.0291L18.0572 16.5629V11.4376Z" fill="#17171C"/>
<path d="M25.9989 3.45078L25.9997 3.45038L21.9999 2L18.0001 3.45038L13.9999 2L9.99879 3.45078L5.99982 2L2 3.45038V8.52021L5.99982 9.97107L10 8.52021L13.9999 9.97107L18.0001 8.52021L21.9999 9.97107L25.9997 8.52021V3.45038L25.9989 3.45078Z" fill="#3B7698"/>
<path d="M10.0287 3.42936L6.01455 4.85917L2 3.42936L6.01455 2L10.0287 3.42936Z" fill="#17171C"/>
<path d="M18.0572 3.42936L14.0431 4.85917L10.0287 3.42936L14.0431 2L18.0572 3.42936Z" fill="#17171C"/>
<path d="M26 3.42936L22.0286 4.85917L18.0572 3.42936L22.0286 2L26 3.42936Z" fill="#17171C"/>
<path d="M18.0564 11.4446L14.0425 12.9089L10.0286 11.4441V16.5641L14.0429 18.0289L18.0572 16.5641L18.0564 11.4446Z" fill="#3B7698"/>
<path d="M18.0572 19.4793L14.0431 18.0288L10.0286 19.4793L10.029 24.5493L14.0431 25.9998L18.0572 24.5493V19.4793Z" fill="#17171C"/>
<path d="M18.0564 19.5019L14.0425 20.9469L10.0286 19.5015V24.5541L14.0429 25.9996L18.0572 24.5541L18.0564 19.5019Z" fill="#3B7698"/>
<path fill-rule="evenodd" clip-rule="evenodd" d="M24.4233 13.0594L23.1151 12.7546L21.8266 12.4543L21.6404 12.4109C21.4947 12.4148 21.3487 12.5065 21.2107 12.6861L20.3612 13.7989C20.2306 13.968 20.2306 14.0317 20.3612 14.2005L21.2107 15.3132C21.3487 15.4928 21.4947 15.5845 21.6404 15.5884L21.8265 15.545L23.1152 15.2448L24.4218 14.9404C24.4727 14.9175 24.5241 14.9056 24.5756 14.9046C24.7267 14.9017 24.8785 14.9934 25.0215 15.1795L26 16.5601L22.0286 18.0291L18.0577 16.5601V11.4358L22.0286 9.97144L26 11.4358L25.0215 12.821C24.8788 13.0068 24.7269 13.0982 24.5756 13.0948C24.5247 13.0937 24.4738 13.0819 24.4233 13.0594Z" fill="#17171C"/>
<path fill-rule="evenodd" clip-rule="evenodd" d="M24.4233 21.0303L23.1151 20.7255L21.8266 20.4252L21.6404 20.3819C21.4947 20.3857 21.3487 20.4774 21.2107 20.657L20.3612 21.7698C20.2306 21.9389 20.2306 22.0027 20.3612 22.1714L21.2107 23.2842C21.3487 23.4638 21.4947 23.5555 21.6404 23.5593L21.8265 23.516L23.1152 23.2158L24.4218 22.9114C24.4727 22.8885 24.5241 22.8765 24.5756 22.8755C24.7267 22.8727 24.8785 22.9643 25.0215 23.1504L26 24.5311L22.0286 26.0001L18.0577 24.5311V19.4068L22.0286 17.9424L26 19.4068L25.0215 20.792C24.8788 20.9778 24.7269 21.0691 24.5756 21.0658C24.5247 21.0647 24.4738 21.0529 24.4233 21.0303Z" fill="#17171C"/>
<path fill-rule="evenodd" clip-rule="evenodd" d="M3.66287 13.0594L4.97109 12.7546L6.25966 12.4543L6.44584 12.4109C6.59148 12.4148 6.73747 12.5065 6.87548 12.6861L7.72502 13.7989C7.8556 13.968 7.8556 14.0317 7.72502 14.2005L6.87548 15.3132C6.73747 15.4928 6.59148 15.5845 6.44584 15.5884L6.25969 15.545L4.97103 15.2448L3.66439 14.9404C3.61346 14.9175 3.56208 14.9056 3.51062 14.9046C3.35949 14.9017 3.20768 14.9934 3.06465 15.1795L2.08618 16.5601L6.05757 18.0291L10.0285 16.5601V11.4358L6.05757 9.97144L2.08618 11.4358L3.06465 12.821C3.20745 13.0068 3.35928 13.0982 3.51062 13.0948C3.56155 13.0937 3.61242 13.0819 3.66287 13.0594Z" fill="#17171C"/>
<path fill-rule="evenodd" clip-rule="evenodd" d="M3.66287 21.0303L4.97109 20.7255L6.25966 20.4252L6.44584 20.3819C6.59148 20.3857 6.73747 20.4774 6.87548 20.657L7.72502 21.7698C7.8556 21.9389 7.8556 22.0027 7.72502 22.1714L6.87548 23.2842C6.73747 23.4638 6.59148 23.5555 6.44584 23.5593L6.25969 23.516L4.97103 23.2158L3.66439 22.9114C3.61346 22.8885 3.56208 22.8765 3.51062 22.8755C3.35949 22.8727 3.20768 22.9643 3.06465 23.1504L2.08618 24.5311L6.05757 26.0001L10.0285 24.5311V19.4068L6.05757 17.9424L2.08618 19.4068L3.06465 20.792C3.20745 20.9778 3.35928 21.0691 3.51062 21.0658C3.56155 21.0647 3.61242 21.0529 3.66287 21.0303Z" fill="#17171C"/>
</svg>
