<svg width="28" height="28" viewBox="0 0 28 28" fill="none" xmlns="http://www.w3.org/2000/svg">
<path d="M3 13.56C3 8.58195 3 6.09294 4.54648 4.54647C6.09295 3 8.58197 3 13.56 3H14.44C19.418 3 21.907 3 23.4535 4.54647C25 6.09294 25 8.58195 25 13.56V14.44C25 19.418 25 21.907 23.4535 23.4535C21.907 24.9999 19.418 24.9999 14.44 24.9999H13.56C8.58197 24.9999 6.09295 24.9999 4.54648 23.4535C3 21.907 3 19.418 3 14.44V13.56Z" fill="#0077FF"/>
<path d="M3.00045 12.6057C3 12.9133 3 13.2313 3 13.5602V14.4402C3 19.4182 3 21.9072 4.54648 23.4537C6.09295 25.0001 8.58197 25.0001 13.56 25.0001H14.44C19.418 25.0001 21.907 25.0001 23.4535 23.4537C25 21.9072 25 19.4182 25 14.4402V13.5602C25 13.1251 25 12.7091 24.999 12.311C24.8378 11.5415 24.5654 10.9647 24.1047 10.5035C22.9793 9.37695 21.166 9.37695 17.5392 9.37695H10.5066C6.87984 9.37695 5.07709 9.37907 3.94957 10.5078C3.43188 11.026 3.15188 11.689 3.00045 12.6057Z" fill="#00EDC5"/>
<path d="M3.00372 16.3106C3 15.7293 3 15.107 3 14.4401V14.0911C5.1246 14.473 7.05698 15.1137 8.69954 15.8047C10.1943 16.4419 11.6369 17.1953 13.0143 18.0578C13.3709 18.2806 13.6743 18.4818 13.9189 18.6495C14.1247 18.4927 14.3762 18.309 14.6705 18.1067C15.9185 17.257 17.2446 16.5282 18.6306 15.9301C20.6771 15.0459 22.8183 14.4352 25 14.1046V14.4401C25 15.1082 25 15.7314 24.9963 16.3136C23.1084 16.6273 21.2563 17.1707 19.4821 17.9388C18.2251 18.4809 17.0227 19.1422 15.8914 19.9135C15.5602 20.1409 15.3012 20.34 15.1017 20.4933C15.0569 20.5277 15.0152 20.5598 14.9763 20.5894L14.7639 20.7722L14.713 20.8169L14.0271 21.4248L13.3058 20.859L13.2988 20.8679H13.2839L13.2181 20.819L12.9421 20.6064C12.7021 20.4321 12.3263 20.1813 11.8528 19.8858C10.5762 19.0919 9.23933 18.3997 7.85445 17.8155C6.4212 17.2123 4.78129 16.6631 3.00372 16.3106Z" fill="white"/>
</svg>
