<svg width="28" height="28" viewBox="0 0 28 28" fill="none" xmlns="http://www.w3.org/2000/svg">
<path d="M26.0043 11.4611L22.0159 9.99815L18.0101 11.4611L14.0043 9.99815L9.99847 11.4611L6.01008 9.99815L2.00427 11.4611V16.5468L6.01008 18.0098L9.99847 16.5468L14.0043 18.0098L18.0101 16.5468L22.0159 18.0098L26.0043 16.5468V11.4611Z" fill="#17171C"/>
<path d="M26.0043 3.44943L22.0159 2.00385L18.0101 3.44943L14.0043 2.00385L9.99847 3.44943L6.01008 2.00385L2.00427 3.44943V8.55247L6.01008 9.99805L9.99847 8.55247L14.0043 9.99805L18.0101 8.55247L22.0159 9.99805L26.0043 8.55247V3.44943Z" fill="#28BE46"/>
<path d="M2.00427 16.5468L5.99266 15.1012L9.99847 16.5468L5.99266 18.0098L2.00427 16.5468Z" fill="#28BE46"/>
<path d="M18.0101 16.5468L22.0159 15.1012L26.0043 16.5468L22.0159 18.0098L18.0101 16.5468Z" fill="#28BE46"/>
<path d="M18.0101 11.4612L14.0043 12.9242L9.99847 11.4612L9.99847 16.5468L14.0043 18.0098L18.0101 16.5468L18.0101 11.4612Z" fill="#28BE46"/>
<path d="M26.0043 19.4553L22.0159 18.0097L18.0101 19.4553L14.0043 18.0097L9.99847 19.4553L6.01008 18.0097L2.00427 19.4553V24.5583L6.01008 26.0039L9.99847 24.5583L14.0043 26.0039L18.0101 24.5583L22.0159 26.0039L26.0043 24.5583V19.4553Z" fill="#17171C"/>
<path d="M2.00427 24.5583L5.99266 23.0953L9.99847 24.5583L5.99266 26.0039L2.00427 24.5583Z" fill="#28BE46"/>
<path d="M18.0101 24.5584L22.0159 23.0954L26.0043 24.5584L22.0159 26.0039L18.0101 24.5584Z" fill="#28BE46"/>
<path d="M18.0101 19.4553L14.0043 20.9183L9.99848 19.4553L9.99847 24.5583L14.0043 26.0039L18.0101 24.5584L18.0101 19.4553Z" fill="#28BE46"/>
<path d="M9.99847 3.44948L5.99266 4.91247L2.00427 3.44948L5.99266 2.00391L9.99847 3.44948Z" fill="#17171C"/>
<path d="M18.0101 3.44948L14.0043 4.91247L9.99847 3.44948L14.0043 2.00391L18.0101 3.44948Z" fill="#17171C"/>
<path d="M26.0043 3.44948L21.9985 4.91247L18.0101 3.44948L21.9985 2.00391L26.0043 3.44948Z" fill="#17171C"/>
</svg>
