<svg width="28" height="28" viewBox="0 0 28 28" fill="none" xmlns="http://www.w3.org/2000/svg">
<path fill-rule="evenodd" clip-rule="evenodd" d="M26.0001 13.9999C26.0001 20.6273 20.6275 25.9999 14.0001 25.9999C7.37264 25.9999 2.00006 20.6273 2.00006 13.9999C2.00006 7.37256 7.37264 2 14.0001 2C20.6275 2 26.0001 7.37256 26.0001 13.9999ZM15.7079 21.533H18.3422V21.5286H18.3244V6.46461H14.5166C10.6933 6.46461 8.67359 8.43528 8.67359 11.3323C8.67359 13.6503 9.78251 15.0242 11.7532 16.4315L8.32621 21.5308H11.1586L14.9664 15.8192L13.6415 14.9262C12.0338 13.8507 11.2566 13.0068 11.2566 11.1853C11.2566 9.57983 12.3834 8.50431 14.5344 8.50431H15.7079V21.533Z" fill="#3D3BFF"/>
</svg>
