<svg width="28" height="28" viewBox="0 0 28 28" fill="none" xmlns="http://www.w3.org/2000/svg">
<path d="M18.0004 11.4564L14.0007 10.0007L10.0008 11.4564L10.0009 16.5447L14.0007 18.0002L18.0004 16.5447V11.4564Z" fill="#17171C"/>
<path d="M25.9992 3.45593L26 3.45555L22.0002 2L18.0005 3.45555L14.0005 2L9.99958 3.45593L6.00061 2L2.00061 3.45555H2.00087V8.54381L6.00061 9.99961L10.0005 8.54381L14.0005 9.99961L18.0005 8.54381L22.0002 9.99961L26.0001 8.54381V3.45555L25.9992 3.45593Z" fill="#FAB400"/>
<path d="M9.99975 3.45617L5.99999 4.9121L2 3.45617L5.99999 2.00049L9.99975 3.45617Z" fill="#17171C"/>
<path d="M18.0001 3.45617L14.0002 4.9121L9.99975 3.45617L14.0002 2.00049L18.0001 3.45617Z" fill="#17171C"/>
<path d="M25.9997 3.45617L21.9999 4.9121L18.0001 3.45617L21.9999 2.00049L25.9997 3.45617Z" fill="#17171C"/>
<path d="M17.999 11.457L13.9999 12.9125L10.0002 11.4568V16.5449L14 18.0007L17.9999 16.5449L17.999 11.457Z" fill="#FAB400"/>
<path d="M18.0004 19.4557L14.0007 18L10.0008 19.4557L10.0009 24.5439L14.0007 25.9995L18.0004 24.5439V19.4557Z" fill="#17171C"/>
<path d="M17.999 19.4569L13.9999 20.9123L10.0002 19.4565V24.5447L14 26.0005L17.9999 24.5447L17.999 19.4569Z" fill="#FAB400"/>
<path d="M17.9982 13.6325H21.9977L25.9968 10.72L17.9982 13.6325Z" fill="#17171C"/>
<path d="M25.9974 13.6331L21.9977 13.6325L17.9988 16.5456L25.9974 13.6331Z" fill="#17171C"/>
<path d="M17.9982 22.369L25.9968 25.2815L21.9977 22.369H17.9982Z" fill="#17171C"/>
<path d="M17.9991 19.457L21.9977 22.369L25.9977 22.3695L17.9991 19.457Z" fill="#17171C"/>
<path d="M2.00139 10.72L6.00051 13.6325H9.99998L2.00139 10.72Z" fill="#17171C"/>
<path d="M2.00055 13.6331L9.99915 16.5456L6.00051 13.6325L2.00055 13.6331Z" fill="#17171C"/>
<path d="M10.0003 22.369H6.00076L2.00167 25.2815L10.0003 22.369Z" fill="#17171C"/>
<path d="M2.00055 22.3695L6.00076 22.369L9.99915 19.457L2.00055 22.3695Z" fill="#17171C"/>
</svg>
