<svg width="28" height="28" viewBox="0 0 28 28" fill="none" xmlns="http://www.w3.org/2000/svg">
<path d="M26 9.17419V3.5828L21.6427 2L17.8213 3.37634L14 2L10.1787 3.37634L6.35735 2L2 3.5828V9.17419L4.78386 10.1892L2 11.2043V16.7957L4.78386 17.8108L2 18.8258V24.4172L6.35735 26L10.1787 24.6237L14 26L17.8213 24.6237L21.6427 26L26 24.4172V18.8258L23.2161 17.8108L26 16.7957V11.2043L23.2161 10.1892L26 9.17419ZM17.8213 9.36344L20.0692 10.172L17.8213 10.9806L15.5735 10.172L17.8213 9.36344ZM14 2.56774L17.8213 3.94409L14 5.33763L10.1787 3.96129L14 2.56774ZM10.1787 9.36344L12.4265 10.172L10.1787 10.9806L7.93084 10.172L10.1787 9.36344ZM2.53602 3.96129L6.35735 2.58495L10.1787 3.96129L6.35735 5.33763L2.53602 3.96129ZM2.53602 16.4V11.5656L6.35735 10.1892L10.1787 11.5656L14 10.1892L17.8213 11.5656L14 12.9419L10.1787 11.5656V16.4L6.35735 15.0237L2.53602 16.4ZM17.8213 16.9677L20.0692 17.7763L17.8213 18.5849L15.5735 17.7763L17.8213 16.9677ZM12.4265 17.7763L10.1787 18.5849L7.93084 17.7763L10.1787 16.9677L12.4265 17.7763ZM10.1787 23.9871L6.35735 22.6108L2.53602 23.9871V19.1527L6.35735 17.7763L10.1787 19.1527V23.9871ZM14 20.5462L10.1787 19.1699L14 17.7935L17.8213 19.1699L14 20.5462ZM25.464 19.1527V23.9871L21.6427 22.6108L17.8213 23.9871V19.1527L21.6427 17.7763L25.464 19.1527ZM25.464 11.5484V16.3828L21.6427 15.0065L17.8213 16.3828V11.5484L21.6427 10.172L25.464 11.5484ZM21.6427 5.33763L17.8213 3.96129L21.6427 2.58495L25.464 3.96129L21.6427 5.33763Z" fill="#3D3BFF"/>
</svg>
