<svg width="28" height="28" viewBox="0 0 28 28" fill="none" xmlns="http://www.w3.org/2000/svg">
<path fill-rule="evenodd" clip-rule="evenodd" d="M14.0099 2.19995C7.36875 2.19995 2 7.60829 2 14.2991C2 19.6475 5.43994 24.1747 10.2121 25.7771C10.8087 25.8976 11.0272 25.5168 11.0272 25.1964C11.0272 24.9159 11.0076 23.9545 11.0076 22.9527C7.6667 23.674 6.97099 21.5104 6.97099 21.5104C6.43409 20.1082 5.63858 19.7478 5.63858 19.7478C4.54511 19.0066 5.71823 19.0066 5.71823 19.0066C6.93117 19.0867 7.56763 20.2485 7.56763 20.2485C8.64118 22.0913 10.3711 21.5706 11.0671 21.2501C11.1664 20.4688 11.4847 19.928 11.8228 19.6276C9.15817 19.3471 6.35469 18.3055 6.35469 13.658C6.35469 12.3359 6.8316 11.2542 7.58729 10.413C7.46807 10.1126 7.0504 8.87039 7.70677 7.20782C7.70677 7.20782 8.72083 6.88726 11.0073 8.44977C11.9863 8.18493 12.9958 8.0502 14.0099 8.04906C15.024 8.04906 16.0577 8.18944 17.0123 8.44977C19.299 6.88726 20.3131 7.20782 20.3131 7.20782C20.9695 8.87039 20.5515 10.1126 20.4323 10.413C21.2079 11.2542 21.6652 12.3359 21.6652 13.658C21.6652 18.3055 18.8617 19.3269 16.1772 19.6276C16.6148 20.0081 16.9924 20.7291 16.9924 21.871C16.9924 23.4935 16.9727 24.7957 16.9727 25.1962C16.9727 25.5168 17.1915 25.8975 17.7879 25.7773C22.56 24.1745 25.9999 19.6475 25.9999 14.2991C26.0196 7.60829 20.6312 2.19995 14.0099 2.19995Z" fill="#3D3BFF"/>
</svg>
