<?xml version="1.0" standalone="no"?>
<!DOCTYPE svg PUBLIC "-//W3C//DTD SVG 20010904//EN"
 "http://www.w3.org/TR/2001/REC-SVG-20010904/DTD/svg10.dtd">
<svg version="1.0" xmlns="http://www.w3.org/2000/svg"
 width="700.000000pt" height="700.000000pt" viewBox="0 0 700.000000 700.000000"
 preserveAspectRatio="xMidYMid meet">
<metadata>
Created by potrace 1.14, written by Peter Selinger 2001-2017
</metadata>
<g transform="translate(0.000000,700.000000) scale(0.100000,-0.100000)"
fill="#000000" stroke="none">
<path d="M2030 6989 c-842 -34 -1263 -159 -1566 -464 -216 -218 -340 -510
-403 -950 -52 -360 -61 -668 -61 -2070 0 -1183 7 -1540 35 -1855 53 -579 180
-926 435 -1180 255 -256 602 -383 1183 -435 321 -28 671 -35 1847 -35 1423 0
1782 12 2141 71 784 128 1160 504 1288 1288 59 360 71 717 71 2141 0 1424 -12
1781 -71 2141 -94 580 -325 931 -742 1129 -284 135 -619 194 -1252 220 -288
11 -2612 11 -2905 -1z m1251 -1267 c41 -11 103 -32 136 -46 l61 -25 62 25
c128 52 223 68 385 68 130 -1 164 -4 250 -27 245 -66 445 -208 595 -424 39
-56 53 -69 104 -90 194 -81 375 -241 497 -437 108 -175 158 -348 166 -566 8
-220 -27 -390 -114 -564 l-35 -69 31 -42 c43 -61 97 -171 116 -240 25 -91 31
-275 11 -360 -45 -194 -148 -351 -301 -461 l-62 -44 8 -42 c35 -180 -36 -396
-175 -533 -103 -102 -255 -174 -371 -175 -24 0 -34 -8 -52 -40 -90 -157 -276
-297 -463 -350 -191 -53 -425 -27 -586 66 l-41 23 -64 -34 c-109 -57 -205 -79
-349 -79 -178 0 -321 45 -451 141 -68 50 -170 159 -204 218 -26 44 -28 45 -79
45 -222 0 -451 183 -537 430 -19 54 -24 87 -25 198 l-1 133 -67 55 c-82 68
-147 153 -196 259 -56 119 -74 212 -68 359 6 145 36 246 105 358 l44 71 -45
86 c-94 183 -133 370 -123 589 12 267 115 516 298 716 96 105 262 215 409 270
38 14 50 26 78 76 134 243 383 422 660 475 103 20 292 13 393 -13z"/>
<path d="M2910 5356 c-69 -20 -114 -41 -178 -85 -85 -58 -145 -131 -202 -247
-54 -112 -88 -148 -153 -164 -229 -59 -394 -189 -487 -385 -95 -199 -100 -453
-13 -647 14 -32 29 -58 33 -58 4 0 41 16 82 35 42 19 120 47 174 61 89 25 117
27 269 28 149 1 180 -2 250 -22 94 -27 140 -60 166 -116 52 -115 -18 -247
-140 -263 -26 -4 -65 1 -104 13 -143 42 -348 16 -502 -64 -99 -51 -214 -167
-245 -247 -31 -79 -34 -197 -6 -270 43 -113 106 -174 227 -220 78 -30 123 -74
140 -139 13 -48 6 -88 -28 -163 -51 -109 -26 -247 56 -316 45 -37 113 -60 158
-53 117 18 159 18 194 1 54 -27 77 -54 100 -114 45 -122 122 -210 227 -259 50
-24 69 -27 162 -27 93 0 111 3 163 27 l57 27 0 1814 0 1814 -42 16 c-24 9 -61
20 -83 26 -54 15 -219 12 -275 -3z m103 -370 c44 -18 94 -77 108 -128 34 -129
-102 -367 -276 -483 -158 -105 -448 -160 -555 -105 -98 50 -132 171 -74 268
35 61 101 92 193 92 167 0 307 89 340 216 32 122 154 187 264 140z m-579
-1814 c370 -174 570 -457 593 -838 5 -93 4 -104 -17 -142 -57 -102 -184 -130
-277 -63 -51 37 -71 80 -83 178 -34 274 -126 399 -385 523 -108 52 -135 75
-160 132 -28 68 -12 143 43 202 66 70 149 72 286 8z"/>
<path d="M3761 5354 c-29 -8 -57 -17 -62 -20 -5 -3 -9 -767 -9 -1825 l0 -1820
58 -27 c51 -24 68 -27 167 -27 108 0 113 1 185 37 41 20 91 53 110 73 l35 36
-40 32 c-165 131 -258 268 -286 420 -19 101 -6 152 50 208 38 38 55 48 95 54
107 16 195 -46 215 -152 16 -84 47 -138 114 -199 79 -71 129 -94 203 -95 72
-1 108 12 153 54 49 47 71 100 71 179 0 57 -5 76 -35 132 -27 51 -35 78 -35
117 0 100 48 156 162 190 39 11 88 31 108 44 55 35 117 110 141 174 28 73 31
194 5 269 l-18 53 -36 -31 c-147 -123 -302 -206 -459 -246 -79 -20 -117 -25
-194 -22 -88 3 -99 5 -133 32 -103 78 -98 231 11 306 25 17 55 25 121 31 196
18 373 120 512 294 153 193 218 403 192 617 -38 307 -224 545 -505 644 -89 31
-125 61 -164 138 -80 159 -239 284 -418 331 -74 19 -241 19 -314 -1z m475
-560 c51 -25 89 -77 109 -152 55 -201 131 -315 244 -365 34 -15 78 -22 172
-26 119 -6 129 -8 164 -35 103 -79 96 -232 -13 -307 -34 -23 -43 -24 -191 -23
-141 0 -163 3 -229 27 -148 52 -267 146 -356 280 -82 124 -166 346 -166 437 0
41 29 108 56 131 58 50 146 63 210 33z"/>
</g>
</svg>
